<svg width="326" height="82" viewBox="0 0 326 82" fill="none" xmlns="http://www.w3.org/2000/svg">
    <defs>
        <linearGradient id="paint0_linear_424_3098" x1="0" y1="41" x2="326" y2="41" gradientUnits="userSpaceOnUse">
            <stop stop-color="#0FE3A7"/>
            <stop offset="1" stop-color="#00BADA"/>
        </linearGradient>
        <clipPath id="clip0_424_3098">
            <rect width="44" height="44" fill="white" transform="translate(9.5 19)"/>
        </clipPath>
        <clipPath id="clip1_424_3098">
            <rect width="24" height="24" fill="white" transform="translate(292.5 29)"/>
        </clipPath></defs><path d="M0 10C0 4.47715 4.47715 0 10 0H316C321.523 0 326 4.47715 326 10V72C326 77.5229 321.523 82 316 82H10C4.47716 82 0 77.5229 0 72V10Z" fill="url(#paint0_linear_424_3098)"/>
<g clip-path="url(#clip0_424_3098)">
<path d="M53.5 41C53.5 45.3512 52.2097 49.6047 49.7923 53.2226C47.375 56.8404 43.939 59.6602 39.919 61.3254C35.8991 62.9905 31.4756 63.4262 27.208 62.5773C22.9404 61.7284 19.0204 59.6331 15.9437 56.5564C12.8669 53.4796 10.7716 49.5596 9.92273 45.292C9.07386 41.0244 9.50953 36.601 11.1747 32.581C12.8398 28.561 15.6596 25.1251 19.2775 22.7077C22.8953 20.2903 27.1488 19 31.5 19C34.3899 18.997 37.2521 19.564 39.9226 20.6685C42.5932 21.773 45.0196 23.3934 47.0631 25.4369C49.1066 27.4804 50.727 29.9069 51.8315 32.5774C52.9361 35.2479 53.503 38.1101 53.5 41Z" fill="#374266"/>
<path d="M45.64 21.284H17.362C16.5751 21.284 15.8205 21.5966 15.264 22.153C14.7076 22.7094 14.395 23.4641 14.395 24.251V39.059C14.395 39.8459 14.7076 40.6006 15.264 41.157C15.8205 41.7134 16.5751 42.026 17.362 42.026H45.64C46.4269 42.026 47.1816 41.7134 47.738 41.157C48.2944 40.6006 48.607 39.8459 48.607 39.059V24.251C48.607 23.4641 48.2944 22.7094 47.738 22.153C47.1816 21.5966 46.4269 21.284 45.64 21.284Z" fill="#FFE261"/>
<path d="M44.524 50.203V55.343C44.5182 56.6461 44.3062 57.9401 43.896 59.177C40.8971 61.2194 37.4403 62.4897 33.8325 62.8751C30.2247 63.2604 26.5776 62.7489 23.215 61.386C22.4358 59.5161 22.007 57.5189 21.95 55.494C21.9688 54.1837 21.7468 52.8811 21.295 51.651C20.9765 51.0617 20.9033 50.3705 21.0912 49.7276C21.2792 49.0846 21.7132 48.5417 22.2989 48.2168C22.8847 47.8918 23.575 47.811 24.22 47.9919C24.865 48.1728 25.4126 48.6008 25.744 49.183C26.1843 49.8894 26.5065 50.6629 26.698 51.473V39.519C26.698 38.9281 26.9327 38.3614 27.3505 37.9436C27.7684 37.5257 28.3351 37.291 28.926 37.291C29.5169 37.291 30.0836 37.5257 30.5014 37.9436C30.9192 38.3614 31.154 38.9281 31.154 39.519V47.408C31.154 46.817 31.3888 46.2501 31.8067 45.8322C32.2246 45.4143 32.7914 45.1795 33.3825 45.1795C33.9735 45.1795 34.5403 45.4143 34.9583 45.8322C35.3762 46.2501 35.611 46.817 35.611 47.408V47.976C35.611 47.385 35.8458 46.8181 36.2637 46.4002C36.6816 45.9823 37.2484 45.7475 37.8395 45.7475C38.4305 45.7475 38.9973 45.9823 39.4153 46.4002C39.8332 46.8181 40.068 47.385 40.068 47.976V50.204C40.068 49.613 40.3028 49.0461 40.7207 48.6282C41.1386 48.2103 41.7054 47.9755 42.2965 47.9755C42.8875 47.9755 43.4543 48.2103 43.8723 48.6282C44.2902 49.0461 44.525 49.613 44.525 50.204L44.524 50.203Z" fill="#FFDCBF"/>
<path d="M27.771 55.577C27.6329 55.5829 27.495 55.5609 27.3656 55.5121C27.2362 55.4633 27.1181 55.3888 27.0183 55.2931C26.9185 55.1974 26.8391 55.0825 26.7849 54.9553C26.7307 54.8281 26.7029 54.6913 26.703 54.553V39.52C26.703 39.1367 26.8019 38.76 26.9901 38.4261C27.1782 38.0922 27.4494 37.8125 27.7772 37.6141C28.1051 37.4156 28.4786 37.3051 28.8617 37.2931C29.2448 37.2812 29.6244 37.3683 29.964 37.546C29.6025 37.7337 29.2995 38.0171 29.0879 38.3652C28.8763 38.7132 28.7643 39.1127 28.764 39.52V54.552C28.7646 54.8145 28.6642 55.0673 28.4837 55.2579C28.3031 55.4485 28.0562 55.5624 27.794 55.576L27.771 55.577Z" fill="#FCBB8D"/>
<path d="M32.223 51.899C32.0849 51.905 31.947 51.8829 31.8176 51.8341C31.6883 51.7853 31.5701 51.7108 31.4703 51.6151C31.3705 51.5194 31.2911 51.4045 31.237 51.2773C31.1828 51.1501 31.1549 51.0133 31.155 50.875V47.408C31.155 47.0248 31.2539 46.648 31.4421 46.3141C31.6303 45.9803 31.9014 45.7006 32.2293 45.5021C32.5571 45.3036 32.9307 45.1931 33.3137 45.1812C33.6968 45.1692 34.0765 45.2563 34.416 45.434C34.0546 45.6219 33.7516 45.9052 33.5401 46.2532C33.3285 46.6013 33.2164 47.0007 33.216 47.408V50.874C33.2166 51.1366 33.1163 51.3893 32.9357 51.5799C32.7552 51.7705 32.5082 51.8844 32.246 51.898L32.223 51.899Z" fill="#FCBB8D"/>
<path d="M36.679 51.12C36.5409 51.1259 36.403 51.1038 36.2736 51.055C36.1442 51.0062 36.0261 50.9318 35.9263 50.8361C35.8265 50.7404 35.7471 50.6255 35.6929 50.4983C35.6387 50.3711 35.6108 50.2343 35.611 50.096V47.976C35.6115 47.593 35.7107 47.2166 35.8991 46.8831C36.0875 46.5497 36.3587 46.2704 36.6865 46.0723C37.0143 45.8742 37.3876 45.7639 37.7704 45.7521C38.1532 45.7403 38.5326 45.8274 38.872 46.005C38.5105 46.1927 38.2074 46.4761 37.9959 46.8241C37.7843 47.1722 37.6722 47.5717 37.672 47.979V50.098C37.6726 50.3605 37.5722 50.6133 37.3917 50.8039C37.2111 50.9945 36.9642 51.1084 36.702 51.122L36.679 51.12Z" fill="#FCBB8D"/>
<path d="M41.136 52.005C40.9979 52.011 40.86 51.9888 40.7306 51.94C40.6013 51.8912 40.4831 51.8168 40.3833 51.7211C40.2835 51.6254 40.2041 51.5105 40.1499 51.3833C40.0957 51.2561 40.0679 51.1193 40.068 50.981V50.205C40.068 49.8217 40.1669 49.445 40.3551 49.1111C40.5433 48.7772 40.8144 48.4975 41.1422 48.2991C41.4701 48.1006 41.8436 47.9901 42.2267 47.9781C42.6098 47.9662 42.9894 48.0533 43.329 48.231C42.9675 48.4187 42.6645 48.7021 42.4529 49.0502C42.2413 49.3982 42.1293 49.7977 42.129 50.205V50.977C42.1296 51.2396 42.0293 51.4923 41.8487 51.6829C41.6681 51.8735 41.4212 51.9874 41.159 52.001L41.136 52.005Z" fill="#FCBB8D"/>
<path d="M25.708 62.23C24.8611 61.9994 24.0289 61.7179 23.216 61.387C22.4369 59.5171 22.0084 57.5199 21.952 55.495C21.9703 54.1843 21.7479 52.8814 21.296 51.651C21.0372 51.1846 20.9315 50.6486 20.9939 50.1188C21.0564 49.589 21.2838 49.0923 21.644 48.6988C22.0042 48.3053 22.4789 48.0351 23.0011 47.9262C23.5233 47.8173 24.0666 47.8753 24.554 48.092C24.486 48.123 24.418 48.156 24.354 48.192C23.7643 48.5194 23.3287 49.0676 23.1431 49.716C22.9574 50.3645 23.0369 51.0601 23.364 51.65C23.8159 52.8804 24.0382 54.1833 24.02 55.494C24.0762 57.8367 24.6528 60.1376 25.708 62.23Z" fill="#FCBB8D"/>
<path d="M20.078 26.946C20.078 26.539 20.5 26.327 20.938 26.327H23.8501C25.4191 26.327 26.8831 26.84 26.8831 28.983C26.94 29.4662 26.8476 29.9553 26.6182 30.3844C26.3888 30.8135 26.0335 31.162 25.6001 31.383C26.1066 31.5454 26.5399 31.8809 26.8241 32.3306C27.1082 32.7804 27.225 33.3158 27.1541 33.843V34.162C27.1541 36.516 25.841 37.362 24.136 37.362H20.9361C20.4081 37.362 20.076 37.075 20.076 36.762V26.946H20.078ZM22.025 30.613H23.715C24.0413 30.5908 24.3468 30.445 24.5693 30.2055C24.7919 29.9659 24.9147 29.6504 24.9128 29.3234C24.9109 28.9965 24.7844 28.6825 24.559 28.4455C24.3337 28.2086 24.0265 28.0664 23.7001 28.048H22.025V30.612V30.613ZM23.73 35.638C24.65 35.638 25.194 35.138 25.194 33.993V33.752C25.194 32.575 24.651 32.152 23.73 32.152H22.025V35.638H23.73Z" fill="#F58D2C"/>
<path d="M33.7951 26.931C33.7951 26.509 34.2781 26.331 34.7761 26.331C35.2591 26.331 35.757 26.512 35.757 26.931V33.993C35.757 36.513 34.1571 37.449 32.1351 37.449C30.0981 37.449 28.5131 36.513 28.5131 33.993V26.931C28.5131 26.509 28.996 26.331 29.494 26.331C29.977 26.331 30.4751 26.512 30.4751 26.931V33.993C30.4673 34.2158 30.5045 34.438 30.5845 34.6461C30.6644 34.8543 30.7854 35.0442 30.9404 35.2046C31.0953 35.365 31.2809 35.4925 31.4861 35.5796C31.6914 35.6667 31.9121 35.7116 32.1351 35.7116C32.358 35.7116 32.5787 35.6667 32.784 35.5796C32.9892 35.4925 33.1748 35.365 33.3298 35.2046C33.4847 35.0442 33.6057 34.8543 33.6856 34.6461C33.7656 34.438 33.8028 34.2158 33.7951 33.993V26.931Z" fill="#F58D2C"/>
<path d="M39.9661 32.936C39.9698 32.8665 39.9542 32.7972 39.9211 32.736L36.7971 27.336C36.7706 27.2725 36.7553 27.2048 36.7521 27.136C36.7521 26.653 37.5221 26.321 38.0521 26.321C38.1812 26.3116 38.3099 26.3448 38.4183 26.4157C38.5267 26.4865 38.6088 26.5909 38.6521 26.713L40.9461 31.074L43.2551 26.713C43.2977 26.5928 43.3781 26.4896 43.4843 26.4189C43.5905 26.3482 43.7167 26.3139 43.8441 26.321C44.3721 26.321 45.1441 26.653 45.1441 27.136C45.1487 27.2056 45.133 27.2751 45.0991 27.336L41.9911 32.736C41.9527 32.7957 41.9319 32.865 41.9311 32.936V36.736C41.9311 37.143 41.4481 37.355 40.9501 37.355C40.4671 37.355 39.9691 37.144 39.9691 36.736V32.936H39.9661Z" fill="#F58D2C"/>
</g>
<path d="M79.6523 22.8838H76.3652L76.3477 21.0732H79.1074C79.5938 21.0732 79.9922 21.0117 80.3027 20.8887C80.6133 20.7598 80.8447 20.5752 80.9971 20.335C81.1553 20.0889 81.2344 19.79 81.2344 19.4385C81.2344 19.04 81.1582 18.7178 81.0059 18.4717C80.8594 18.2256 80.6279 18.0469 80.3115 17.9355C80.001 17.8242 79.5996 17.7686 79.1074 17.7686H77.2793V28.5H74.6426V15.7031H79.1074C79.8516 15.7031 80.5166 15.7734 81.1025 15.9141C81.6943 16.0547 82.1953 16.2686 82.6055 16.5557C83.0156 16.8428 83.3291 17.2061 83.5459 17.6455C83.7627 18.0791 83.8711 18.5947 83.8711 19.1924C83.8711 19.7197 83.751 20.2061 83.5107 20.6514C83.2764 21.0967 82.9043 21.46 82.3945 21.7412C81.8906 22.0225 81.2314 22.1777 80.417 22.207L79.6523 22.8838ZM79.5381 28.5H75.6445L76.6729 26.4434H79.5381C80.001 26.4434 80.3789 26.3701 80.6719 26.2236C80.9648 26.0713 81.1816 25.8662 81.3223 25.6084C81.4629 25.3506 81.5332 25.0547 81.5332 24.7207C81.5332 24.3457 81.4688 24.0205 81.3398 23.7451C81.2168 23.4697 81.0176 23.2588 80.7422 23.1123C80.4668 22.96 80.1035 22.8838 79.6523 22.8838H77.1123L77.1299 21.0732H80.2939L80.9004 21.7852C81.6797 21.7734 82.3066 21.9111 82.7812 22.1982C83.2617 22.4795 83.6104 22.8457 83.8271 23.2969C84.0498 23.748 84.1611 24.2314 84.1611 24.7471C84.1611 25.5674 83.9824 26.2588 83.625 26.8213C83.2676 27.3779 82.7432 27.7969 82.0518 28.0781C81.3662 28.3594 80.5283 28.5 79.5381 28.5ZM91.6055 26.2236V18.9902H94.1367V28.5H91.7549L91.6055 26.2236ZM91.8867 24.2725L92.6338 24.2549C92.6338 24.8877 92.5605 25.4766 92.4141 26.0215C92.2676 26.5605 92.0479 27.0293 91.7549 27.4277C91.4619 27.8203 91.0928 28.1279 90.6475 28.3506C90.2021 28.5674 89.6777 28.6758 89.0742 28.6758C88.6113 28.6758 88.1836 28.6113 87.791 28.4824C87.4043 28.3477 87.0703 28.1396 86.7891 27.8584C86.5137 27.5713 86.2969 27.2051 86.1387 26.7598C85.9863 26.3086 85.9102 25.7666 85.9102 25.1338V18.9902H88.4414V25.1514C88.4414 25.4326 88.4736 25.6699 88.5381 25.8633C88.6084 26.0566 88.7051 26.2148 88.8281 26.3379C88.9512 26.4609 89.0947 26.5488 89.2588 26.6016C89.4287 26.6543 89.6162 26.6807 89.8213 26.6807C90.3428 26.6807 90.7529 26.5752 91.0518 26.3643C91.3564 26.1533 91.5703 25.8662 91.6934 25.5029C91.8223 25.1338 91.8867 24.7236 91.8867 24.2725ZM98.8916 27.4277L101.414 18.9902H104.13L100.307 29.9326C100.225 30.1729 100.113 30.4307 99.9727 30.7061C99.8379 30.9814 99.6533 31.2422 99.4189 31.4883C99.1904 31.7402 98.9004 31.9453 98.5488 32.1035C98.2031 32.2617 97.7783 32.3408 97.2744 32.3408C97.0342 32.3408 96.8379 32.3262 96.6855 32.2969C96.5332 32.2676 96.3516 32.2266 96.1406 32.1738V30.3193C96.2051 30.3193 96.2725 30.3193 96.3428 30.3193C96.4131 30.3252 96.4805 30.3281 96.5449 30.3281C96.8789 30.3281 97.1514 30.29 97.3623 30.2139C97.5732 30.1377 97.7432 30.0205 97.8721 29.8623C98.001 29.71 98.1035 29.5107 98.1797 29.2646L98.8916 27.4277ZM97.8369 18.9902L99.9023 25.8809L100.263 28.5615L98.54 28.7461L95.1211 18.9902H97.8369ZM114.765 23.9385H111.504V21.8818H114.765C115.269 21.8818 115.679 21.7998 115.995 21.6357C116.312 21.4658 116.543 21.2314 116.689 20.9326C116.836 20.6338 116.909 20.2969 116.909 19.9219C116.909 19.541 116.836 19.1865 116.689 18.8584C116.543 18.5303 116.312 18.2666 115.995 18.0674C115.679 17.8682 115.269 17.7686 114.765 17.7686H112.418V28.5H109.781V15.7031H114.765C115.767 15.7031 116.625 15.8848 117.34 16.248C118.061 16.6055 118.611 17.1006 118.992 17.7334C119.373 18.3662 119.563 19.0898 119.563 19.9043C119.563 20.7305 119.373 21.4453 118.992 22.0488C118.611 22.6523 118.061 23.1182 117.34 23.4463C116.625 23.7744 115.767 23.9385 114.765 23.9385ZM123.756 21.0645V28.5H121.225V18.9902H123.606L123.756 21.0645ZM126.621 18.9287L126.577 21.2754C126.454 21.2578 126.305 21.2432 126.129 21.2314C125.959 21.2139 125.804 21.2051 125.663 21.2051C125.306 21.2051 124.995 21.252 124.731 21.3457C124.474 21.4336 124.257 21.5654 124.081 21.7412C123.911 21.917 123.782 22.1309 123.694 22.3828C123.612 22.6348 123.565 22.9219 123.554 23.2441L123.044 23.0859C123.044 22.4707 123.105 21.9053 123.229 21.3896C123.352 20.8682 123.53 20.4141 123.765 20.0273C124.005 19.6406 124.298 19.3418 124.644 19.1309C124.989 18.9199 125.385 18.8145 125.83 18.8145C125.971 18.8145 126.114 18.8262 126.261 18.8496C126.407 18.8672 126.527 18.8936 126.621 18.9287ZM127.148 23.8418V23.6572C127.148 22.96 127.248 22.3184 127.447 21.7324C127.646 21.1406 127.937 20.6279 128.317 20.1943C128.698 19.7607 129.167 19.4238 129.724 19.1836C130.28 18.9375 130.919 18.8145 131.64 18.8145C132.36 18.8145 133.002 18.9375 133.564 19.1836C134.127 19.4238 134.599 19.7607 134.979 20.1943C135.366 20.6279 135.659 21.1406 135.858 21.7324C136.058 22.3184 136.157 22.96 136.157 23.6572V23.8418C136.157 24.5332 136.058 25.1748 135.858 25.7666C135.659 26.3525 135.366 26.8652 134.979 27.3047C134.599 27.7383 134.13 28.0752 133.573 28.3154C133.017 28.5557 132.378 28.6758 131.657 28.6758C130.937 28.6758 130.295 28.5557 129.732 28.3154C129.176 28.0752 128.704 27.7383 128.317 27.3047C127.937 26.8652 127.646 26.3525 127.447 25.7666C127.248 25.1748 127.148 24.5332 127.148 23.8418ZM129.68 23.6572V23.8418C129.68 24.2402 129.715 24.6123 129.785 24.958C129.855 25.3037 129.967 25.6084 130.119 25.8721C130.277 26.1299 130.482 26.332 130.734 26.4785C130.986 26.625 131.294 26.6982 131.657 26.6982C132.009 26.6982 132.311 26.625 132.562 26.4785C132.814 26.332 133.017 26.1299 133.169 25.8721C133.321 25.6084 133.433 25.3037 133.503 24.958C133.579 24.6123 133.617 24.2402 133.617 23.8418V23.6572C133.617 23.2705 133.579 22.9072 133.503 22.5674C133.433 22.2217 133.318 21.917 133.16 21.6533C133.008 21.3838 132.806 21.1729 132.554 21.0205C132.302 20.8682 131.997 20.792 131.64 20.792C131.282 20.792 130.978 20.8682 130.726 21.0205C130.479 21.1729 130.277 21.3838 130.119 21.6533C129.967 21.917 129.855 22.2217 129.785 22.5674C129.715 22.9072 129.68 23.2705 129.68 23.6572Z" fill="white"/>
<path d="M78.3262 47.5967H75.667V46.5234H78.3262C78.8411 46.5234 79.2581 46.4414 79.5771 46.2773C79.8962 46.1133 80.1286 45.8854 80.2744 45.5938C80.4248 45.3021 80.5 44.9694 80.5 44.5957C80.5 44.2539 80.4248 43.9326 80.2744 43.6318C80.1286 43.3311 79.8962 43.0895 79.5771 42.9072C79.2581 42.7204 78.8411 42.627 78.3262 42.627H75.9746V51.5H74.6553V41.5469H78.3262C79.0781 41.5469 79.7139 41.6768 80.2334 41.9365C80.7529 42.1963 81.1471 42.5563 81.416 43.0166C81.6849 43.4723 81.8193 43.9941 81.8193 44.582C81.8193 45.2201 81.6849 45.7646 81.416 46.2158C81.1471 46.667 80.7529 47.0111 80.2334 47.248C79.7139 47.4805 79.0781 47.5967 78.3262 47.5967ZM84.6699 41V51.5H83.3984V41H84.6699ZM89.7695 51.6367C89.2546 51.6367 88.7874 51.5501 88.3682 51.377C87.9535 51.1992 87.5957 50.9508 87.2949 50.6318C86.9987 50.3128 86.7708 49.9346 86.6113 49.4971C86.4518 49.0596 86.3721 48.5811 86.3721 48.0615V47.7744C86.3721 47.1729 86.4609 46.6374 86.6387 46.168C86.8164 45.694 87.0579 45.293 87.3633 44.9648C87.6686 44.6367 88.015 44.3883 88.4023 44.2197C88.7897 44.0511 89.1908 43.9668 89.6055 43.9668C90.1341 43.9668 90.5898 44.0579 90.9727 44.2402C91.36 44.4225 91.6768 44.6777 91.9229 45.0059C92.1689 45.3294 92.3512 45.7122 92.4697 46.1543C92.5882 46.5918 92.6475 47.0703 92.6475 47.5898V48.1572H87.124V47.125H91.3828V47.0293C91.3646 46.7012 91.2962 46.3822 91.1777 46.0723C91.0638 45.7624 90.8815 45.5072 90.6309 45.3066C90.3802 45.1061 90.0384 45.0059 89.6055 45.0059C89.3184 45.0059 89.054 45.0674 88.8125 45.1904C88.571 45.3089 88.3636 45.4867 88.1904 45.7236C88.0173 45.9606 87.8828 46.25 87.7871 46.5918C87.6914 46.9336 87.6436 47.3278 87.6436 47.7744V48.0615C87.6436 48.4124 87.6914 48.7428 87.7871 49.0527C87.8874 49.3581 88.0309 49.627 88.2178 49.8594C88.4092 50.0918 88.6393 50.2741 88.9082 50.4062C89.1816 50.5384 89.4915 50.6045 89.8379 50.6045C90.2845 50.6045 90.6628 50.5133 90.9727 50.3311C91.2826 50.1488 91.5537 49.9049 91.7861 49.5996L92.5518 50.208C92.3923 50.4495 92.1895 50.6797 91.9434 50.8984C91.6973 51.1172 91.3942 51.2949 91.0342 51.4316C90.6787 51.5684 90.2572 51.6367 89.7695 51.6367ZM98.4854 50.2354V46.4277C98.4854 46.1361 98.4261 45.8831 98.3076 45.6689C98.1937 45.4502 98.0205 45.2816 97.7881 45.1631C97.5557 45.0446 97.2686 44.9854 96.9268 44.9854C96.6077 44.9854 96.3275 45.04 96.0859 45.1494C95.849 45.2588 95.6621 45.4023 95.5254 45.5801C95.3932 45.7578 95.3271 45.9492 95.3271 46.1543H94.0625C94.0625 45.89 94.1309 45.6279 94.2676 45.3682C94.4043 45.1084 94.6003 44.8737 94.8555 44.6641C95.1152 44.4499 95.4251 44.2812 95.7852 44.1582C96.1497 44.0306 96.5553 43.9668 97.002 43.9668C97.5397 43.9668 98.0137 44.0579 98.4238 44.2402C98.8385 44.4225 99.1621 44.6982 99.3945 45.0674C99.6315 45.432 99.75 45.89 99.75 46.4414V49.8867C99.75 50.1328 99.7705 50.3949 99.8115 50.6729C99.8571 50.9508 99.9232 51.1901 100.01 51.3906V51.5H98.6904C98.6266 51.3542 98.5765 51.1605 98.54 50.9189C98.5036 50.6729 98.4854 50.445 98.4854 50.2354ZM98.7041 47.0156L98.7178 47.9043H97.4395C97.0794 47.9043 96.7581 47.9339 96.4756 47.9932C96.193 48.0479 95.9561 48.1322 95.7646 48.2461C95.5732 48.36 95.4274 48.5036 95.3271 48.6768C95.2269 48.8454 95.1768 49.0436 95.1768 49.2715C95.1768 49.5039 95.2292 49.7158 95.334 49.9072C95.4388 50.0986 95.596 50.2513 95.8057 50.3652C96.0199 50.4746 96.2819 50.5293 96.5918 50.5293C96.9792 50.5293 97.321 50.4473 97.6172 50.2832C97.9134 50.1191 98.1481 49.9186 98.3213 49.6816C98.499 49.4447 98.5947 49.2145 98.6084 48.9912L99.1484 49.5996C99.1165 49.791 99.0299 50.0029 98.8887 50.2354C98.7474 50.4678 98.5583 50.6911 98.3213 50.9053C98.0889 51.1149 97.8109 51.2904 97.4873 51.4316C97.1683 51.5684 96.8083 51.6367 96.4072 51.6367C95.9059 51.6367 95.4661 51.5387 95.0879 51.3428C94.7142 51.1468 94.4225 50.8848 94.2129 50.5566C94.0078 50.224 93.9053 49.8525 93.9053 49.4424C93.9053 49.0459 93.9827 48.6973 94.1377 48.3965C94.2926 48.0911 94.516 47.8382 94.8076 47.6377C95.0993 47.4326 95.4502 47.2777 95.8604 47.1729C96.2705 47.068 96.7285 47.0156 97.2344 47.0156H98.7041ZM106.046 49.5381C106.046 49.3558 106.005 49.1872 105.923 49.0322C105.845 48.8727 105.684 48.7292 105.438 48.6016C105.196 48.4694 104.831 48.3555 104.344 48.2598C103.934 48.1732 103.562 48.0706 103.229 47.9521C102.901 47.8337 102.621 47.6901 102.389 47.5215C102.161 47.3529 101.985 47.1546 101.862 46.9268C101.739 46.6989 101.678 46.4323 101.678 46.127C101.678 45.8353 101.742 45.5596 101.869 45.2998C102.001 45.04 102.186 44.8099 102.423 44.6094C102.664 44.4089 102.954 44.2516 103.291 44.1377C103.628 44.0238 104.004 43.9668 104.419 43.9668C105.011 43.9668 105.517 44.0716 105.937 44.2812C106.356 44.4909 106.677 44.7712 106.9 45.1221C107.124 45.4684 107.235 45.8535 107.235 46.2773H105.971C105.971 46.0723 105.909 45.874 105.786 45.6826C105.668 45.4867 105.492 45.3249 105.26 45.1973C105.032 45.0697 104.752 45.0059 104.419 45.0059C104.068 45.0059 103.783 45.0605 103.564 45.1699C103.35 45.2747 103.193 45.4092 103.093 45.5732C102.997 45.7373 102.949 45.9105 102.949 46.0928C102.949 46.2295 102.972 46.3525 103.018 46.4619C103.068 46.5667 103.154 46.6647 103.277 46.7559C103.4 46.8424 103.574 46.9245 103.797 47.002C104.02 47.0794 104.305 47.1569 104.651 47.2344C105.257 47.3711 105.757 47.5352 106.148 47.7266C106.54 47.918 106.832 48.1527 107.023 48.4307C107.215 48.7087 107.311 49.0459 107.311 49.4424C107.311 49.766 107.242 50.0622 107.105 50.3311C106.973 50.5999 106.78 50.8324 106.524 51.0283C106.274 51.2197 105.973 51.3701 105.622 51.4795C105.276 51.5843 104.886 51.6367 104.453 51.6367C103.801 51.6367 103.25 51.5205 102.799 51.2881C102.348 51.0557 102.006 50.7549 101.773 50.3857C101.541 50.0166 101.425 49.627 101.425 49.2168H102.696C102.715 49.5632 102.815 49.8389 102.997 50.0439C103.179 50.2445 103.403 50.388 103.667 50.4746C103.931 50.5566 104.193 50.5977 104.453 50.5977C104.799 50.5977 105.089 50.5521 105.321 50.4609C105.558 50.3698 105.738 50.2445 105.861 50.085C105.984 49.9255 106.046 49.7432 106.046 49.5381ZM112.041 51.6367C111.526 51.6367 111.059 51.5501 110.64 51.377C110.225 51.1992 109.867 50.9508 109.566 50.6318C109.27 50.3128 109.042 49.9346 108.883 49.4971C108.723 49.0596 108.644 48.5811 108.644 48.0615V47.7744C108.644 47.1729 108.732 46.6374 108.91 46.168C109.088 45.694 109.329 45.293 109.635 44.9648C109.94 44.6367 110.286 44.3883 110.674 44.2197C111.061 44.0511 111.462 43.9668 111.877 43.9668C112.406 43.9668 112.861 44.0579 113.244 44.2402C113.632 44.4225 113.948 44.6777 114.194 45.0059C114.44 45.3294 114.623 45.7122 114.741 46.1543C114.86 46.5918 114.919 47.0703 114.919 47.5898V48.1572H109.396V47.125H113.654V47.0293C113.636 46.7012 113.568 46.3822 113.449 46.0723C113.335 45.7624 113.153 45.5072 112.902 45.3066C112.652 45.1061 112.31 45.0059 111.877 45.0059C111.59 45.0059 111.326 45.0674 111.084 45.1904C110.842 45.3089 110.635 45.4867 110.462 45.7236C110.289 45.9606 110.154 46.25 110.059 46.5918C109.963 46.9336 109.915 47.3278 109.915 47.7744V48.0615C109.915 48.4124 109.963 48.7428 110.059 49.0527C110.159 49.3581 110.302 49.627 110.489 49.8594C110.681 50.0918 110.911 50.2741 111.18 50.4062C111.453 50.5384 111.763 50.6045 112.109 50.6045C112.556 50.6045 112.934 50.5133 113.244 50.3311C113.554 50.1488 113.825 49.9049 114.058 49.5996L114.823 50.208C114.664 50.4495 114.461 50.6797 114.215 50.8984C113.969 51.1172 113.666 51.2949 113.306 51.4316C112.95 51.5684 112.529 51.6367 112.041 51.6367ZM121.133 45.5254V54.3438H119.861V44.1035H121.023L121.133 45.5254ZM126.116 47.7402V47.8838C126.116 48.4215 126.052 48.9206 125.925 49.3809C125.797 49.8366 125.61 50.2331 125.364 50.5703C125.123 50.9076 124.824 51.1696 124.469 51.3564C124.113 51.5433 123.705 51.6367 123.245 51.6367C122.776 51.6367 122.361 51.5592 122.001 51.4043C121.641 51.2493 121.336 51.0238 121.085 50.7275C120.834 50.4313 120.634 50.0758 120.483 49.6611C120.338 49.2464 120.237 48.7793 120.183 48.2598V47.4941C120.237 46.9473 120.34 46.4574 120.49 46.0244C120.641 45.5915 120.839 45.2223 121.085 44.917C121.336 44.6071 121.639 44.3724 121.994 44.2129C122.35 44.0488 122.76 43.9668 123.225 43.9668C123.689 43.9668 124.102 44.0579 124.462 44.2402C124.822 44.418 125.125 44.6732 125.371 45.0059C125.617 45.3385 125.802 45.7373 125.925 46.2021C126.052 46.6624 126.116 47.1751 126.116 47.7402ZM124.845 47.8838V47.7402C124.845 47.3711 124.806 47.0247 124.729 46.7012C124.651 46.373 124.53 46.0859 124.366 45.8398C124.207 45.5892 124.002 45.3932 123.751 45.252C123.5 45.1061 123.202 45.0332 122.855 45.0332C122.536 45.0332 122.258 45.0879 122.021 45.1973C121.789 45.3066 121.591 45.4548 121.427 45.6416C121.263 45.8239 121.128 46.0335 121.023 46.2705C120.923 46.5029 120.848 46.7445 120.798 46.9951V48.7656C120.889 49.0846 121.017 49.3854 121.181 49.668C121.345 49.946 121.563 50.1715 121.837 50.3447C122.11 50.5133 122.454 50.5977 122.869 50.5977C123.211 50.5977 123.505 50.527 123.751 50.3857C124.002 50.2399 124.207 50.0417 124.366 49.791C124.53 49.5404 124.651 49.2533 124.729 48.9297C124.806 48.6016 124.845 48.2529 124.845 47.8838ZM132.255 49.791V44.1035H133.526V51.5H132.316L132.255 49.791ZM132.494 48.2324L133.021 48.2188C133.021 48.7109 132.968 49.1667 132.863 49.5859C132.763 50.0007 132.599 50.3607 132.371 50.666C132.143 50.9714 131.845 51.2106 131.476 51.3838C131.106 51.5524 130.658 51.6367 130.129 51.6367C129.769 51.6367 129.438 51.5843 129.138 51.4795C128.841 51.3747 128.586 51.2129 128.372 50.9941C128.158 50.7754 127.992 50.4906 127.873 50.1396C127.759 49.7887 127.702 49.3672 127.702 48.875V44.1035H128.967V48.8887C128.967 49.2214 129.003 49.4971 129.076 49.7158C129.154 49.93 129.256 50.1009 129.384 50.2285C129.516 50.3516 129.662 50.4382 129.821 50.4883C129.985 50.5384 130.154 50.5635 130.327 50.5635C130.865 50.5635 131.291 50.4609 131.605 50.2559C131.92 50.0462 132.146 49.766 132.282 49.415C132.424 49.0596 132.494 48.6654 132.494 48.2324ZM136.719 45.2656V51.5H135.454V44.1035H136.685L136.719 45.2656ZM139.029 44.0625L139.022 45.2383C138.918 45.2155 138.817 45.2018 138.722 45.1973C138.631 45.1882 138.526 45.1836 138.407 45.1836C138.116 45.1836 137.858 45.2292 137.635 45.3203C137.411 45.4115 137.222 45.5391 137.067 45.7031C136.912 45.8672 136.789 46.0632 136.698 46.291C136.612 46.5143 136.555 46.7604 136.527 47.0293L136.172 47.2344C136.172 46.7878 136.215 46.3685 136.302 45.9766C136.393 45.5846 136.532 45.2383 136.719 44.9375C136.906 44.6322 137.143 44.3952 137.43 44.2266C137.721 44.0534 138.068 43.9668 138.469 43.9668C138.56 43.9668 138.665 43.9782 138.783 44.001C138.902 44.0192 138.984 44.0397 139.029 44.0625ZM143.021 50.5977C143.322 50.5977 143.6 50.5361 143.855 50.4131C144.111 50.29 144.32 50.1214 144.484 49.9072C144.648 49.6885 144.742 49.4401 144.765 49.1621H145.968C145.945 49.5996 145.797 50.0075 145.523 50.3857C145.255 50.7594 144.901 51.0625 144.464 51.2949C144.026 51.5228 143.546 51.6367 143.021 51.6367C142.465 51.6367 141.98 51.5387 141.565 51.3428C141.155 51.1468 140.813 50.8779 140.54 50.5361C140.271 50.1943 140.068 49.8024 139.932 49.3604C139.799 48.9137 139.733 48.4421 139.733 47.9453V47.6582C139.733 47.1615 139.799 46.6921 139.932 46.25C140.068 45.8034 140.271 45.4092 140.54 45.0674C140.813 44.7256 141.155 44.4567 141.565 44.2607C141.98 44.0648 142.465 43.9668 143.021 43.9668C143.6 43.9668 144.106 44.0853 144.539 44.3223C144.972 44.5547 145.312 44.8737 145.558 45.2793C145.808 45.6803 145.945 46.1361 145.968 46.6465H144.765C144.742 46.3411 144.655 46.0654 144.505 45.8193C144.359 45.5732 144.159 45.3773 143.903 45.2314C143.653 45.0811 143.359 45.0059 143.021 45.0059C142.634 45.0059 142.308 45.0833 142.044 45.2383C141.784 45.3887 141.577 45.5938 141.422 45.8535C141.271 46.1087 141.162 46.3936 141.094 46.708C141.03 47.0179 140.998 47.3346 140.998 47.6582V47.9453C140.998 48.2689 141.03 48.5879 141.094 48.9023C141.158 49.2168 141.265 49.5016 141.415 49.7568C141.57 50.012 141.777 50.2171 142.037 50.3721C142.301 50.5225 142.63 50.5977 143.021 50.5977ZM148.654 41V51.5H147.39V41H148.654ZM148.354 47.5215L147.827 47.501C147.832 46.9951 147.907 46.528 148.053 46.0996C148.199 45.6667 148.404 45.2907 148.668 44.9717C148.932 44.6527 149.247 44.4066 149.611 44.2334C149.98 44.0557 150.388 43.9668 150.835 43.9668C151.2 43.9668 151.528 44.0169 151.819 44.1172C152.111 44.2129 152.359 44.3678 152.564 44.582C152.774 44.7962 152.934 45.0742 153.043 45.416C153.152 45.7533 153.207 46.1657 153.207 46.6533V51.5H151.936V46.6396C151.936 46.2523 151.879 45.9424 151.765 45.71C151.651 45.473 151.484 45.3021 151.266 45.1973C151.047 45.0879 150.778 45.0332 150.459 45.0332C150.145 45.0332 149.857 45.0993 149.598 45.2314C149.342 45.3636 149.121 45.5459 148.935 45.7783C148.752 46.0107 148.609 46.2773 148.504 46.5781C148.404 46.8743 148.354 47.1888 148.354 47.5215ZM159.462 50.2354V46.4277C159.462 46.1361 159.403 45.8831 159.284 45.6689C159.17 45.4502 158.997 45.2816 158.765 45.1631C158.532 45.0446 158.245 44.9854 157.903 44.9854C157.584 44.9854 157.304 45.04 157.062 45.1494C156.826 45.2588 156.639 45.4023 156.502 45.5801C156.37 45.7578 156.304 45.9492 156.304 46.1543H155.039C155.039 45.89 155.107 45.6279 155.244 45.3682C155.381 45.1084 155.577 44.8737 155.832 44.6641C156.092 44.4499 156.402 44.2812 156.762 44.1582C157.126 44.0306 157.532 43.9668 157.979 43.9668C158.516 43.9668 158.99 44.0579 159.4 44.2402C159.815 44.4225 160.139 44.6982 160.371 45.0674C160.608 45.432 160.727 45.89 160.727 46.4414V49.8867C160.727 50.1328 160.747 50.3949 160.788 50.6729C160.834 50.9508 160.9 51.1901 160.986 51.3906V51.5H159.667C159.603 51.3542 159.553 51.1605 159.517 50.9189C159.48 50.6729 159.462 50.445 159.462 50.2354ZM159.681 47.0156L159.694 47.9043H158.416C158.056 47.9043 157.735 47.9339 157.452 47.9932C157.17 48.0479 156.933 48.1322 156.741 48.2461C156.55 48.36 156.404 48.5036 156.304 48.6768C156.203 48.8454 156.153 49.0436 156.153 49.2715C156.153 49.5039 156.206 49.7158 156.311 49.9072C156.415 50.0986 156.573 50.2513 156.782 50.3652C156.996 50.4746 157.258 50.5293 157.568 50.5293C157.956 50.5293 158.298 50.4473 158.594 50.2832C158.89 50.1191 159.125 49.9186 159.298 49.6816C159.476 49.4447 159.571 49.2145 159.585 48.9912L160.125 49.5996C160.093 49.791 160.007 50.0029 159.865 50.2354C159.724 50.4678 159.535 50.6911 159.298 50.9053C159.065 51.1149 158.787 51.2904 158.464 51.4316C158.145 51.5684 157.785 51.6367 157.384 51.6367C156.882 51.6367 156.443 51.5387 156.064 51.3428C155.691 51.1468 155.399 50.8848 155.189 50.5566C154.984 50.224 154.882 49.8525 154.882 49.4424C154.882 49.0459 154.959 48.6973 155.114 48.3965C155.269 48.0911 155.493 47.8382 155.784 47.6377C156.076 47.4326 156.427 47.2777 156.837 47.1729C157.247 47.068 157.705 47.0156 158.211 47.0156H159.681ZM167.022 49.5381C167.022 49.3558 166.981 49.1872 166.899 49.0322C166.822 48.8727 166.66 48.7292 166.414 48.6016C166.173 48.4694 165.808 48.3555 165.32 48.2598C164.91 48.1732 164.539 48.0706 164.206 47.9521C163.878 47.8337 163.598 47.6901 163.365 47.5215C163.137 47.3529 162.962 47.1546 162.839 46.9268C162.716 46.6989 162.654 46.4323 162.654 46.127C162.654 45.8353 162.718 45.5596 162.846 45.2998C162.978 45.04 163.162 44.8099 163.399 44.6094C163.641 44.4089 163.93 44.2516 164.268 44.1377C164.605 44.0238 164.981 43.9668 165.396 43.9668C165.988 43.9668 166.494 44.0716 166.913 44.2812C167.332 44.4909 167.654 44.7712 167.877 45.1221C168.1 45.4684 168.212 45.8535 168.212 46.2773H166.947C166.947 46.0723 166.886 45.874 166.763 45.6826C166.644 45.4867 166.469 45.3249 166.236 45.1973C166.008 45.0697 165.728 45.0059 165.396 45.0059C165.045 45.0059 164.76 45.0605 164.541 45.1699C164.327 45.2747 164.17 45.4092 164.069 45.5732C163.974 45.7373 163.926 45.9105 163.926 46.0928C163.926 46.2295 163.949 46.3525 163.994 46.4619C164.044 46.5667 164.131 46.6647 164.254 46.7559C164.377 46.8424 164.55 46.9245 164.773 47.002C164.997 47.0794 165.282 47.1569 165.628 47.2344C166.234 47.3711 166.733 47.5352 167.125 47.7266C167.517 47.918 167.809 48.1527 168 48.4307C168.191 48.7087 168.287 49.0459 168.287 49.4424C168.287 49.766 168.219 50.0622 168.082 50.3311C167.95 50.5999 167.756 50.8324 167.501 51.0283C167.25 51.2197 166.95 51.3701 166.599 51.4795C166.252 51.5843 165.863 51.6367 165.43 51.6367C164.778 51.6367 164.227 51.5205 163.775 51.2881C163.324 51.0557 162.982 50.7549 162.75 50.3857C162.518 50.0166 162.401 49.627 162.401 49.2168H163.673C163.691 49.5632 163.791 49.8389 163.974 50.0439C164.156 50.2445 164.379 50.388 164.644 50.4746C164.908 50.5566 165.17 50.5977 165.43 50.5977C165.776 50.5977 166.065 50.5521 166.298 50.4609C166.535 50.3698 166.715 50.2445 166.838 50.085C166.961 49.9255 167.022 49.7432 167.022 49.5381ZM173.018 51.6367C172.503 51.6367 172.035 51.5501 171.616 51.377C171.201 51.1992 170.844 50.9508 170.543 50.6318C170.247 50.3128 170.019 49.9346 169.859 49.4971C169.7 49.0596 169.62 48.5811 169.62 48.0615V47.7744C169.62 47.1729 169.709 46.6374 169.887 46.168C170.064 45.694 170.306 45.293 170.611 44.9648C170.917 44.6367 171.263 44.3883 171.65 44.2197C172.038 44.0511 172.439 43.9668 172.854 43.9668C173.382 43.9668 173.838 44.0579 174.221 44.2402C174.608 44.4225 174.925 44.6777 175.171 45.0059C175.417 45.3294 175.599 45.7122 175.718 46.1543C175.836 46.5918 175.896 47.0703 175.896 47.5898V48.1572H170.372V47.125H174.631V47.0293C174.613 46.7012 174.544 46.3822 174.426 46.0723C174.312 45.7624 174.13 45.5072 173.879 45.3066C173.628 45.1061 173.286 45.0059 172.854 45.0059C172.566 45.0059 172.302 45.0674 172.061 45.1904C171.819 45.3089 171.612 45.4867 171.438 45.7236C171.265 45.9606 171.131 46.25 171.035 46.5918C170.939 46.9336 170.892 47.3278 170.892 47.7744V48.0615C170.892 48.4124 170.939 48.7428 171.035 49.0527C171.135 49.3581 171.279 49.627 171.466 49.8594C171.657 50.0918 171.887 50.2741 172.156 50.4062C172.43 50.5384 172.74 50.6045 173.086 50.6045C173.533 50.6045 173.911 50.5133 174.221 50.3311C174.531 50.1488 174.802 49.9049 175.034 49.5996L175.8 50.208C175.64 50.4495 175.438 50.6797 175.191 50.8984C174.945 51.1172 174.642 51.2949 174.282 51.4316C173.927 51.5684 173.505 51.6367 173.018 51.6367ZM185.206 50.2354V46.4277C185.206 46.1361 185.147 45.8831 185.028 45.6689C184.914 45.4502 184.741 45.2816 184.509 45.1631C184.276 45.0446 183.989 44.9854 183.647 44.9854C183.328 44.9854 183.048 45.04 182.807 45.1494C182.57 45.2588 182.383 45.4023 182.246 45.5801C182.114 45.7578 182.048 45.9492 182.048 46.1543H180.783C180.783 45.89 180.852 45.6279 180.988 45.3682C181.125 45.1084 181.321 44.8737 181.576 44.6641C181.836 44.4499 182.146 44.2812 182.506 44.1582C182.87 44.0306 183.276 43.9668 183.723 43.9668C184.26 43.9668 184.734 44.0579 185.145 44.2402C185.559 44.4225 185.883 44.6982 186.115 45.0674C186.352 45.432 186.471 45.89 186.471 46.4414V49.8867C186.471 50.1328 186.491 50.3949 186.532 50.6729C186.578 50.9508 186.644 51.1901 186.73 51.3906V51.5H185.411C185.347 51.3542 185.297 51.1605 185.261 50.9189C185.224 50.6729 185.206 50.445 185.206 50.2354ZM185.425 47.0156L185.438 47.9043H184.16C183.8 47.9043 183.479 47.9339 183.196 47.9932C182.914 48.0479 182.677 48.1322 182.485 48.2461C182.294 48.36 182.148 48.5036 182.048 48.6768C181.948 48.8454 181.897 49.0436 181.897 49.2715C181.897 49.5039 181.95 49.7158 182.055 49.9072C182.16 50.0986 182.317 50.2513 182.526 50.3652C182.741 50.4746 183.003 50.5293 183.312 50.5293C183.7 50.5293 184.042 50.4473 184.338 50.2832C184.634 50.1191 184.869 49.9186 185.042 49.6816C185.22 49.4447 185.315 49.2145 185.329 48.9912L185.869 49.5996C185.837 49.791 185.751 50.0029 185.609 50.2354C185.468 50.4678 185.279 50.6911 185.042 50.9053C184.81 51.1149 184.532 51.2904 184.208 51.4316C183.889 51.5684 183.529 51.6367 183.128 51.6367C182.627 51.6367 182.187 51.5387 181.809 51.3428C181.435 51.1468 181.143 50.8848 180.934 50.5566C180.729 50.224 180.626 49.8525 180.626 49.4424C180.626 49.0459 180.703 48.6973 180.858 48.3965C181.013 48.0911 181.237 47.8382 181.528 47.6377C181.82 47.4326 182.171 47.2777 182.581 47.1729C182.991 47.068 183.449 47.0156 183.955 47.0156H185.425ZM196.239 49.5381C196.239 49.3558 196.198 49.1872 196.116 49.0322C196.039 48.8727 195.877 48.7292 195.631 48.6016C195.389 48.4694 195.025 48.3555 194.537 48.2598C194.127 48.1732 193.756 48.0706 193.423 47.9521C193.095 47.8337 192.814 47.6901 192.582 47.5215C192.354 47.3529 192.179 47.1546 192.056 46.9268C191.933 46.6989 191.871 46.4323 191.871 46.127C191.871 45.8353 191.935 45.5596 192.062 45.2998C192.195 45.04 192.379 44.8099 192.616 44.6094C192.858 44.4089 193.147 44.2516 193.484 44.1377C193.822 44.0238 194.198 43.9668 194.612 43.9668C195.205 43.9668 195.711 44.0716 196.13 44.2812C196.549 44.4909 196.87 44.7712 197.094 45.1221C197.317 45.4684 197.429 45.8535 197.429 46.2773H196.164C196.164 46.0723 196.103 45.874 195.979 45.6826C195.861 45.4867 195.686 45.3249 195.453 45.1973C195.225 45.0697 194.945 45.0059 194.612 45.0059C194.261 45.0059 193.977 45.0605 193.758 45.1699C193.544 45.2747 193.386 45.4092 193.286 45.5732C193.19 45.7373 193.143 45.9105 193.143 46.0928C193.143 46.2295 193.165 46.3525 193.211 46.4619C193.261 46.5667 193.348 46.6647 193.471 46.7559C193.594 46.8424 193.767 46.9245 193.99 47.002C194.214 47.0794 194.498 47.1569 194.845 47.2344C195.451 47.3711 195.95 47.5352 196.342 47.7266C196.734 47.918 197.025 48.1527 197.217 48.4307C197.408 48.7087 197.504 49.0459 197.504 49.4424C197.504 49.766 197.436 50.0622 197.299 50.3311C197.167 50.5999 196.973 50.8324 196.718 51.0283C196.467 51.2197 196.166 51.3701 195.815 51.4795C195.469 51.5843 195.079 51.6367 194.646 51.6367C193.995 51.6367 193.443 51.5205 192.992 51.2881C192.541 51.0557 192.199 50.7549 191.967 50.3857C191.734 50.0166 191.618 49.627 191.618 49.2168H192.89C192.908 49.5632 193.008 49.8389 193.19 50.0439C193.373 50.2445 193.596 50.388 193.86 50.4746C194.125 50.5566 194.387 50.5977 194.646 50.5977C194.993 50.5977 195.282 50.5521 195.515 50.4609C195.752 50.3698 195.932 50.2445 196.055 50.085C196.178 49.9255 196.239 49.7432 196.239 49.5381ZM203.69 49.791V44.1035H204.962V51.5H203.752L203.69 49.791ZM203.93 48.2324L204.456 48.2188C204.456 48.7109 204.404 49.1667 204.299 49.5859C204.199 50.0007 204.035 50.3607 203.807 50.666C203.579 50.9714 203.28 51.2106 202.911 51.3838C202.542 51.5524 202.093 51.6367 201.564 51.6367C201.204 51.6367 200.874 51.5843 200.573 51.4795C200.277 51.3747 200.022 51.2129 199.808 50.9941C199.593 50.7754 199.427 50.4906 199.309 50.1396C199.195 49.7887 199.138 49.3672 199.138 48.875V44.1035H200.402V48.8887C200.402 49.2214 200.439 49.4971 200.512 49.7158C200.589 49.93 200.692 50.1009 200.819 50.2285C200.951 50.3516 201.097 50.4382 201.257 50.4883C201.421 50.5384 201.59 50.5635 201.763 50.5635C202.3 50.5635 202.727 50.4609 203.041 50.2559C203.355 50.0462 203.581 49.766 203.718 49.415C203.859 49.0596 203.93 48.6654 203.93 48.2324ZM206.883 41H208.154V50.0645L208.045 51.5H206.883V41ZM213.151 47.7402V47.8838C213.151 48.4215 213.088 48.9206 212.96 49.3809C212.832 49.8366 212.646 50.2331 212.399 50.5703C212.153 50.9076 211.853 51.1696 211.497 51.3564C211.142 51.5433 210.734 51.6367 210.273 51.6367C209.804 51.6367 209.392 51.557 209.036 51.3975C208.685 51.2334 208.389 50.9987 208.147 50.6934C207.906 50.388 207.712 50.0189 207.566 49.5859C207.425 49.153 207.327 48.6654 207.272 48.123V47.4941C207.327 46.9473 207.425 46.4574 207.566 46.0244C207.712 45.5915 207.906 45.2223 208.147 44.917C208.389 44.6071 208.685 44.3724 209.036 44.2129C209.387 44.0488 209.795 43.9668 210.26 43.9668C210.725 43.9668 211.137 44.0579 211.497 44.2402C211.857 44.418 212.158 44.6732 212.399 45.0059C212.646 45.3385 212.832 45.7373 212.96 46.2021C213.088 46.6624 213.151 47.1751 213.151 47.7402ZM211.88 47.8838V47.7402C211.88 47.3711 211.846 47.0247 211.777 46.7012C211.709 46.373 211.6 46.0859 211.449 45.8398C211.299 45.5892 211.101 45.3932 210.854 45.252C210.608 45.1061 210.305 45.0332 209.945 45.0332C209.626 45.0332 209.348 45.0879 209.111 45.1973C208.879 45.3066 208.681 45.4548 208.517 45.6416C208.353 45.8239 208.218 46.0335 208.113 46.2705C208.013 46.5029 207.938 46.7445 207.888 46.9951V48.6426C207.961 48.9616 208.079 49.2692 208.243 49.5654C208.412 49.8571 208.635 50.0964 208.913 50.2832C209.196 50.4701 209.544 50.5635 209.959 50.5635C210.301 50.5635 210.592 50.4951 210.834 50.3584C211.08 50.2171 211.278 50.0234 211.429 49.7773C211.584 49.5312 211.698 49.2464 211.771 48.9229C211.843 48.5993 211.88 48.2529 211.88 47.8838ZM219.058 49.5381C219.058 49.3558 219.017 49.1872 218.935 49.0322C218.857 48.8727 218.695 48.7292 218.449 48.6016C218.208 48.4694 217.843 48.3555 217.355 48.2598C216.945 48.1732 216.574 48.0706 216.241 47.9521C215.913 47.8337 215.633 47.6901 215.4 47.5215C215.173 47.3529 214.997 47.1546 214.874 46.9268C214.751 46.6989 214.689 46.4323 214.689 46.127C214.689 45.8353 214.753 45.5596 214.881 45.2998C215.013 45.04 215.198 44.8099 215.435 44.6094C215.676 44.4089 215.965 44.2516 216.303 44.1377C216.64 44.0238 217.016 43.9668 217.431 43.9668C218.023 43.9668 218.529 44.0716 218.948 44.2812C219.368 44.4909 219.689 44.7712 219.912 45.1221C220.135 45.4684 220.247 45.8535 220.247 46.2773H218.982C218.982 46.0723 218.921 45.874 218.798 45.6826C218.679 45.4867 218.504 45.3249 218.271 45.1973C218.044 45.0697 217.763 45.0059 217.431 45.0059C217.08 45.0059 216.795 45.0605 216.576 45.1699C216.362 45.2747 216.205 45.4092 216.104 45.5732C216.009 45.7373 215.961 45.9105 215.961 46.0928C215.961 46.2295 215.984 46.3525 216.029 46.4619C216.079 46.5667 216.166 46.6647 216.289 46.7559C216.412 46.8424 216.585 46.9245 216.809 47.002C217.032 47.0794 217.317 47.1569 217.663 47.2344C218.269 47.3711 218.768 47.5352 219.16 47.7266C219.552 47.918 219.844 48.1527 220.035 48.4307C220.227 48.7087 220.322 49.0459 220.322 49.4424C220.322 49.766 220.254 50.0622 220.117 50.3311C219.985 50.5999 219.791 50.8324 219.536 51.0283C219.285 51.2197 218.985 51.3701 218.634 51.4795C218.287 51.5843 217.898 51.6367 217.465 51.6367C216.813 51.6367 216.262 51.5205 215.811 51.2881C215.359 51.0557 215.018 50.7549 214.785 50.3857C214.553 50.0166 214.437 49.627 214.437 49.2168H215.708C215.726 49.5632 215.826 49.8389 216.009 50.0439C216.191 50.2445 216.414 50.388 216.679 50.4746C216.943 50.5566 217.205 50.5977 217.465 50.5977C217.811 50.5977 218.101 50.5521 218.333 50.4609C218.57 50.3698 218.75 50.2445 218.873 50.085C218.996 49.9255 219.058 49.7432 219.058 49.5381ZM224.943 50.5977C225.244 50.5977 225.522 50.5361 225.777 50.4131C226.033 50.29 226.242 50.1214 226.406 49.9072C226.57 49.6885 226.664 49.4401 226.687 49.1621H227.89C227.867 49.5996 227.719 50.0075 227.445 50.3857C227.176 50.7594 226.823 51.0625 226.386 51.2949C225.948 51.5228 225.467 51.6367 224.943 51.6367C224.387 51.6367 223.902 51.5387 223.487 51.3428C223.077 51.1468 222.735 50.8779 222.462 50.5361C222.193 50.1943 221.99 49.8024 221.854 49.3604C221.721 48.9137 221.655 48.4421 221.655 47.9453V47.6582C221.655 47.1615 221.721 46.6921 221.854 46.25C221.99 45.8034 222.193 45.4092 222.462 45.0674C222.735 44.7256 223.077 44.4567 223.487 44.2607C223.902 44.0648 224.387 43.9668 224.943 43.9668C225.522 43.9668 226.028 44.0853 226.461 44.3223C226.894 44.5547 227.233 44.8737 227.479 45.2793C227.73 45.6803 227.867 46.1361 227.89 46.6465H226.687C226.664 46.3411 226.577 46.0654 226.427 45.8193C226.281 45.5732 226.08 45.3773 225.825 45.2314C225.575 45.0811 225.281 45.0059 224.943 45.0059C224.556 45.0059 224.23 45.0833 223.966 45.2383C223.706 45.3887 223.499 45.5938 223.344 45.8535C223.193 46.1087 223.084 46.3936 223.016 46.708C222.952 47.0179 222.92 47.3346 222.92 47.6582V47.9453C222.92 48.2689 222.952 48.5879 223.016 48.9023C223.079 49.2168 223.187 49.5016 223.337 49.7568C223.492 50.012 223.699 50.2171 223.959 50.3721C224.223 50.5225 224.551 50.5977 224.943 50.5977ZM230.576 45.2656V51.5H229.312V44.1035H230.542L230.576 45.2656ZM232.887 44.0625L232.88 45.2383C232.775 45.2155 232.675 45.2018 232.579 45.1973C232.488 45.1882 232.383 45.1836 232.265 45.1836C231.973 45.1836 231.715 45.2292 231.492 45.3203C231.269 45.4115 231.08 45.5391 230.925 45.7031C230.77 45.8672 230.647 46.0632 230.556 46.291C230.469 46.5143 230.412 46.7604 230.385 47.0293L230.029 47.2344C230.029 46.7878 230.073 46.3685 230.159 45.9766C230.25 45.5846 230.389 45.2383 230.576 44.9375C230.763 44.6322 231 44.3952 231.287 44.2266C231.579 44.0534 231.925 43.9668 232.326 43.9668C232.417 43.9668 232.522 43.9782 232.641 44.001C232.759 44.0192 232.841 44.0397 232.887 44.0625ZM235.43 44.1035V51.5H234.158V44.1035H235.43ZM234.062 42.1416C234.062 41.9365 234.124 41.7633 234.247 41.6221C234.375 41.4808 234.562 41.4102 234.808 41.4102C235.049 41.4102 235.234 41.4808 235.361 41.6221C235.493 41.7633 235.56 41.9365 235.56 42.1416C235.56 42.3376 235.493 42.5062 235.361 42.6475C235.234 42.7842 235.049 42.8525 234.808 42.8525C234.562 42.8525 234.375 42.7842 234.247 42.6475C234.124 42.5062 234.062 42.3376 234.062 42.1416ZM238.725 45.5254V54.3438H237.453V44.1035H238.615L238.725 45.5254ZM243.708 47.7402V47.8838C243.708 48.4215 243.644 48.9206 243.517 49.3809C243.389 49.8366 243.202 50.2331 242.956 50.5703C242.715 50.9076 242.416 51.1696 242.061 51.3564C241.705 51.5433 241.297 51.6367 240.837 51.6367C240.368 51.6367 239.953 51.5592 239.593 51.4043C239.233 51.2493 238.927 51.0238 238.677 50.7275C238.426 50.4313 238.226 50.0758 238.075 49.6611C237.929 49.2464 237.829 48.7793 237.774 48.2598V47.4941C237.829 46.9473 237.932 46.4574 238.082 46.0244C238.232 45.5915 238.431 45.2223 238.677 44.917C238.927 44.6071 239.23 44.3724 239.586 44.2129C239.941 44.0488 240.352 43.9668 240.816 43.9668C241.281 43.9668 241.694 44.0579 242.054 44.2402C242.414 44.418 242.717 44.6732 242.963 45.0059C243.209 45.3385 243.394 45.7373 243.517 46.2021C243.644 46.6624 243.708 47.1751 243.708 47.7402ZM242.437 47.8838V47.7402C242.437 47.3711 242.398 47.0247 242.32 46.7012C242.243 46.373 242.122 46.0859 241.958 45.8398C241.799 45.5892 241.593 45.3932 241.343 45.252C241.092 45.1061 240.794 45.0332 240.447 45.0332C240.128 45.0332 239.85 45.0879 239.613 45.1973C239.381 45.3066 239.183 45.4548 239.019 45.6416C238.854 45.8239 238.72 46.0335 238.615 46.2705C238.515 46.5029 238.44 46.7445 238.39 46.9951V48.7656C238.481 49.0846 238.608 49.3854 238.772 49.668C238.937 49.946 239.155 50.1715 239.429 50.3447C239.702 50.5133 240.046 50.5977 240.461 50.5977C240.803 50.5977 241.097 50.527 241.343 50.3857C241.593 50.2399 241.799 50.0417 241.958 49.791C242.122 49.5404 242.243 49.2533 242.32 48.9297C242.398 48.6016 242.437 48.2529 242.437 47.8838ZM248.418 44.1035V45.0742H244.419V44.1035H248.418ZM245.772 42.3057H247.037V49.668C247.037 49.9186 247.076 50.1077 247.153 50.2354C247.231 50.363 247.331 50.4473 247.454 50.4883C247.577 50.5293 247.709 50.5498 247.851 50.5498C247.955 50.5498 248.065 50.5407 248.179 50.5225C248.297 50.4997 248.386 50.4814 248.445 50.4678L248.452 51.5C248.352 51.5319 248.22 51.5615 248.056 51.5889C247.896 51.6208 247.702 51.6367 247.475 51.6367C247.165 51.6367 246.88 51.5752 246.62 51.4521C246.36 51.3291 246.153 51.124 245.998 50.8369C245.848 50.5452 245.772 50.1533 245.772 49.6611V42.3057ZM251.275 44.1035V51.5H250.004V44.1035H251.275ZM249.908 42.1416C249.908 41.9365 249.97 41.7633 250.093 41.6221C250.22 41.4808 250.407 41.4102 250.653 41.4102C250.895 41.4102 251.079 41.4808 251.207 41.6221C251.339 41.7633 251.405 41.9365 251.405 42.1416C251.405 42.3376 251.339 42.5062 251.207 42.6475C251.079 42.7842 250.895 42.8525 250.653 42.8525C250.407 42.8525 250.22 42.7842 250.093 42.6475C249.97 42.5062 249.908 42.3376 249.908 42.1416ZM252.971 47.8838V47.7266C252.971 47.1934 253.048 46.6989 253.203 46.2432C253.358 45.7829 253.581 45.3841 253.873 45.0469C254.165 44.7051 254.518 44.4408 254.933 44.2539C255.347 44.0625 255.812 43.9668 256.327 43.9668C256.847 43.9668 257.314 44.0625 257.729 44.2539C258.148 44.4408 258.503 44.7051 258.795 45.0469C259.091 45.3841 259.317 45.7829 259.472 46.2432C259.627 46.6989 259.704 47.1934 259.704 47.7266V47.8838C259.704 48.417 259.627 48.9115 259.472 49.3672C259.317 49.8229 259.091 50.2217 258.795 50.5635C258.503 50.9007 258.15 51.165 257.735 51.3564C257.325 51.5433 256.86 51.6367 256.341 51.6367C255.821 51.6367 255.354 51.5433 254.939 51.3564C254.525 51.165 254.169 50.9007 253.873 50.5635C253.581 50.2217 253.358 49.8229 253.203 49.3672C253.048 48.9115 252.971 48.417 252.971 47.8838ZM254.235 47.7266V47.8838C254.235 48.2529 254.279 48.6016 254.365 48.9297C254.452 49.2533 254.582 49.5404 254.755 49.791C254.933 50.0417 255.154 50.2399 255.418 50.3857C255.682 50.527 255.99 50.5977 256.341 50.5977C256.687 50.5977 256.99 50.527 257.25 50.3857C257.514 50.2399 257.733 50.0417 257.906 49.791C258.079 49.5404 258.209 49.2533 258.296 48.9297C258.387 48.6016 258.433 48.2529 258.433 47.8838V47.7266C258.433 47.362 258.387 47.0179 258.296 46.6943C258.209 46.3662 258.077 46.0768 257.899 45.8262C257.726 45.571 257.507 45.3704 257.243 45.2246C256.983 45.0788 256.678 45.0059 256.327 45.0059C255.981 45.0059 255.675 45.0788 255.411 45.2246C255.151 45.3704 254.933 45.571 254.755 45.8262C254.582 46.0768 254.452 46.3662 254.365 46.6943C254.279 47.0179 254.235 47.362 254.235 47.7266ZM262.555 45.6826V51.5H261.29V44.1035H262.486L262.555 45.6826ZM262.254 47.5215L261.728 47.501C261.732 46.9951 261.807 46.528 261.953 46.0996C262.099 45.6667 262.304 45.2907 262.568 44.9717C262.833 44.6527 263.147 44.4066 263.512 44.2334C263.881 44.0557 264.289 43.9668 264.735 43.9668C265.1 43.9668 265.428 44.0169 265.72 44.1172C266.011 44.2129 266.26 44.3678 266.465 44.582C266.674 44.7962 266.834 45.0742 266.943 45.416C267.053 45.7533 267.107 46.1657 267.107 46.6533V51.5H265.836V46.6396C265.836 46.2523 265.779 45.9424 265.665 45.71C265.551 45.473 265.385 45.3021 265.166 45.1973C264.947 45.0879 264.678 45.0332 264.359 45.0332C264.045 45.0332 263.758 45.0993 263.498 45.2314C263.243 45.3636 263.022 45.5459 262.835 45.7783C262.653 46.0107 262.509 46.2773 262.404 46.5781C262.304 46.8743 262.254 47.1888 262.254 47.5215ZM77.5605 60.1035V61.0742H73.5615V60.1035H77.5605ZM74.915 58.3057H76.1797V65.668C76.1797 65.9186 76.2184 66.1077 76.2959 66.2354C76.3734 66.363 76.4736 66.4473 76.5967 66.4883C76.7197 66.5293 76.8519 66.5498 76.9932 66.5498C77.098 66.5498 77.2074 66.5407 77.3213 66.5225C77.4398 66.4997 77.5286 66.4814 77.5879 66.4678L77.5947 67.5C77.4945 67.5319 77.3623 67.5615 77.1982 67.5889C77.0387 67.6208 76.8451 67.6367 76.6172 67.6367C76.3073 67.6367 76.0225 67.5752 75.7627 67.4521C75.5029 67.3291 75.2956 67.124 75.1406 66.8369C74.9902 66.5452 74.915 66.1533 74.915 65.6611V58.3057ZM78.5723 63.8838V63.7266C78.5723 63.1934 78.6497 62.6989 78.8047 62.2432C78.9596 61.7829 79.1829 61.3841 79.4746 61.0469C79.7663 60.7051 80.1195 60.4408 80.5342 60.2539C80.9489 60.0625 81.4137 59.9668 81.9287 59.9668C82.4482 59.9668 82.9154 60.0625 83.3301 60.2539C83.7493 60.4408 84.1048 60.7051 84.3965 61.0469C84.6927 61.3841 84.9183 61.7829 85.0732 62.2432C85.2282 62.6989 85.3057 63.1934 85.3057 63.7266V63.8838C85.3057 64.417 85.2282 64.9115 85.0732 65.3672C84.9183 65.8229 84.6927 66.2217 84.3965 66.5635C84.1048 66.9007 83.7516 67.165 83.3369 67.3564C82.9268 67.5433 82.4619 67.6367 81.9424 67.6367C81.4229 67.6367 80.9557 67.5433 80.541 67.3564C80.1263 67.165 79.7708 66.9007 79.4746 66.5635C79.1829 66.2217 78.9596 65.8229 78.8047 65.3672C78.6497 64.9115 78.5723 64.417 78.5723 63.8838ZM79.8369 63.7266V63.8838C79.8369 64.2529 79.8802 64.6016 79.9668 64.9297C80.0534 65.2533 80.1833 65.5404 80.3564 65.791C80.5342 66.0417 80.7552 66.2399 81.0195 66.3857C81.2839 66.527 81.5915 66.5977 81.9424 66.5977C82.2887 66.5977 82.5918 66.527 82.8516 66.3857C83.1159 66.2399 83.3346 66.0417 83.5078 65.791C83.681 65.5404 83.8109 65.2533 83.8975 64.9297C83.9886 64.6016 84.0342 64.2529 84.0342 63.8838V63.7266C84.0342 63.362 83.9886 63.0179 83.8975 62.6943C83.8109 62.3662 83.6787 62.0768 83.501 61.8262C83.3278 61.571 83.109 61.3704 82.8447 61.2246C82.585 61.0788 82.2796 61.0059 81.9287 61.0059C81.5824 61.0059 81.277 61.0788 81.0127 61.2246C80.7529 61.3704 80.5342 61.571 80.3564 61.8262C80.1833 62.0768 80.0534 62.3662 79.9668 62.6943C79.8802 63.0179 79.8369 63.362 79.8369 63.7266ZM94.8896 65.791V60.1035H96.1611V67.5H94.9512L94.8896 65.791ZM95.1289 64.2324L95.6553 64.2188C95.6553 64.7109 95.6029 65.1667 95.498 65.5859C95.3978 66.0007 95.2337 66.3607 95.0059 66.666C94.778 66.9714 94.4795 67.2106 94.1104 67.3838C93.7412 67.5524 93.2923 67.6367 92.7637 67.6367C92.4036 67.6367 92.0732 67.5843 91.7725 67.4795C91.4762 67.3747 91.221 67.2129 91.0068 66.9941C90.7926 66.7754 90.6263 66.4906 90.5078 66.1396C90.3939 65.7887 90.3369 65.3672 90.3369 64.875V60.1035H91.6016V64.8887C91.6016 65.2214 91.638 65.4971 91.7109 65.7158C91.7884 65.93 91.891 66.1009 92.0186 66.2285C92.1507 66.3516 92.2965 66.4382 92.4561 66.4883C92.6201 66.5384 92.7887 66.5635 92.9619 66.5635C93.4997 66.5635 93.9258 66.4609 94.2402 66.2559C94.5547 66.0462 94.7803 65.766 94.917 65.415C95.0583 65.0596 95.1289 64.6654 95.1289 64.2324ZM102.396 65.5381C102.396 65.3558 102.354 65.1872 102.272 65.0322C102.195 64.8727 102.033 64.7292 101.787 64.6016C101.546 64.4694 101.181 64.3555 100.693 64.2598C100.283 64.1732 99.9118 64.0706 99.5791 63.9521C99.251 63.8337 98.9707 63.6901 98.7383 63.5215C98.5104 63.3529 98.335 63.1546 98.2119 62.9268C98.0889 62.6989 98.0273 62.4323 98.0273 62.127C98.0273 61.8353 98.0911 61.5596 98.2188 61.2998C98.3509 61.04 98.5355 60.8099 98.7725 60.6094C99.014 60.4089 99.3034 60.2516 99.6406 60.1377C99.9779 60.0238 100.354 59.9668 100.769 59.9668C101.361 59.9668 101.867 60.0716 102.286 60.2812C102.705 60.4909 103.027 60.7712 103.25 61.1221C103.473 61.4684 103.585 61.8535 103.585 62.2773H102.32C102.32 62.0723 102.259 61.874 102.136 61.6826C102.017 61.4867 101.842 61.3249 101.609 61.1973C101.382 61.0697 101.101 61.0059 100.769 61.0059C100.418 61.0059 100.133 61.0605 99.9141 61.1699C99.6999 61.2747 99.5426 61.4092 99.4424 61.5732C99.3467 61.7373 99.2988 61.9105 99.2988 62.0928C99.2988 62.2295 99.3216 62.3525 99.3672 62.4619C99.4173 62.5667 99.5039 62.6647 99.627 62.7559C99.75 62.8424 99.9232 62.9245 100.146 63.002C100.37 63.0794 100.655 63.1569 101.001 63.2344C101.607 63.3711 102.106 63.5352 102.498 63.7266C102.89 63.918 103.182 64.1527 103.373 64.4307C103.564 64.7087 103.66 65.0459 103.66 65.4424C103.66 65.766 103.592 66.0622 103.455 66.3311C103.323 66.5999 103.129 66.8324 102.874 67.0283C102.623 67.2197 102.323 67.3701 101.972 67.4795C101.625 67.5843 101.236 67.6367 100.803 67.6367C100.151 67.6367 99.5996 67.5205 99.1484 67.2881C98.6973 67.0557 98.3555 66.7549 98.123 66.3857C97.8906 66.0166 97.7744 65.627 97.7744 65.2168H99.0459C99.0641 65.5632 99.1644 65.8389 99.3467 66.0439C99.529 66.2445 99.7523 66.388 100.017 66.4746C100.281 66.5566 100.543 66.5977 100.803 66.5977C101.149 66.5977 101.438 66.5521 101.671 66.4609C101.908 66.3698 102.088 66.2445 102.211 66.085C102.334 65.9255 102.396 65.7432 102.396 65.5381ZM108.391 67.6367C107.876 67.6367 107.409 67.5501 106.989 67.377C106.575 67.1992 106.217 66.9508 105.916 66.6318C105.62 66.3128 105.392 65.9346 105.232 65.4971C105.073 65.0596 104.993 64.5811 104.993 64.0615V63.7744C104.993 63.1729 105.082 62.6374 105.26 62.168C105.438 61.694 105.679 61.293 105.984 60.9648C106.29 60.6367 106.636 60.3883 107.023 60.2197C107.411 60.0511 107.812 59.9668 108.227 59.9668C108.755 59.9668 109.211 60.0579 109.594 60.2402C109.981 60.4225 110.298 60.6777 110.544 61.0059C110.79 61.3294 110.972 61.7122 111.091 62.1543C111.209 62.5918 111.269 63.0703 111.269 63.5898V64.1572H105.745V63.125H110.004V63.0293C109.986 62.7012 109.917 62.3822 109.799 62.0723C109.685 61.7624 109.503 61.5072 109.252 61.3066C109.001 61.1061 108.66 61.0059 108.227 61.0059C107.939 61.0059 107.675 61.0674 107.434 61.1904C107.192 61.3089 106.985 61.4867 106.812 61.7236C106.638 61.9606 106.504 62.25 106.408 62.5918C106.312 62.9336 106.265 63.3278 106.265 63.7744V64.0615C106.265 64.4124 106.312 64.7428 106.408 65.0527C106.508 65.3581 106.652 65.627 106.839 65.8594C107.03 66.0918 107.26 66.2741 107.529 66.4062C107.803 66.5384 108.113 66.6045 108.459 66.6045C108.906 66.6045 109.284 66.5133 109.594 66.3311C109.904 66.1488 110.175 65.9049 110.407 65.5996L111.173 66.208C111.013 66.4495 110.811 66.6797 110.564 66.8984C110.318 67.1172 110.015 67.2949 109.655 67.4316C109.3 67.5684 108.878 67.6367 108.391 67.6367ZM119.314 60.1035V61.0742H115.315V60.1035H119.314ZM116.669 58.3057H117.934V65.668C117.934 65.9186 117.972 66.1077 118.05 66.2354C118.127 66.363 118.228 66.4473 118.351 66.4883C118.474 66.5293 118.606 66.5498 118.747 66.5498C118.852 66.5498 118.961 66.5407 119.075 66.5225C119.194 66.4997 119.283 66.4814 119.342 66.4678L119.349 67.5C119.248 67.5319 119.116 67.5615 118.952 67.5889C118.793 67.6208 118.599 67.6367 118.371 67.6367C118.061 67.6367 117.776 67.5752 117.517 67.4521C117.257 67.3291 117.049 67.124 116.895 66.8369C116.744 66.5452 116.669 66.1533 116.669 65.6611V58.3057ZM122.062 57V67.5H120.798V57H122.062ZM121.762 63.5215L121.235 63.501C121.24 62.9951 121.315 62.528 121.461 62.0996C121.607 61.6667 121.812 61.2907 122.076 60.9717C122.34 60.6527 122.655 60.4066 123.02 60.2334C123.389 60.0557 123.797 59.9668 124.243 59.9668C124.608 59.9668 124.936 60.0169 125.228 60.1172C125.519 60.2129 125.768 60.3678 125.973 60.582C126.182 60.7962 126.342 61.0742 126.451 61.416C126.561 61.7533 126.615 62.1657 126.615 62.6533V67.5H125.344V62.6396C125.344 62.2523 125.287 61.9424 125.173 61.71C125.059 61.473 124.893 61.3021 124.674 61.1973C124.455 61.0879 124.186 61.0332 123.867 61.0332C123.553 61.0332 123.266 61.0993 123.006 61.2314C122.751 61.3636 122.53 61.5459 122.343 61.7783C122.16 62.0107 122.017 62.2773 121.912 62.5781C121.812 62.8743 121.762 63.1888 121.762 63.5215ZM131.578 67.6367C131.063 67.6367 130.596 67.5501 130.177 67.377C129.762 67.1992 129.404 66.9508 129.104 66.6318C128.807 66.3128 128.579 65.9346 128.42 65.4971C128.26 65.0596 128.181 64.5811 128.181 64.0615V63.7744C128.181 63.1729 128.27 62.6374 128.447 62.168C128.625 61.694 128.867 61.293 129.172 60.9648C129.477 60.6367 129.824 60.3883 130.211 60.2197C130.598 60.0511 130.999 59.9668 131.414 59.9668C131.943 59.9668 132.398 60.0579 132.781 60.2402C133.169 60.4225 133.485 60.6777 133.731 61.0059C133.978 61.3294 134.16 61.7122 134.278 62.1543C134.397 62.5918 134.456 63.0703 134.456 63.5898V64.1572H128.933V63.125H133.191V63.0293C133.173 62.7012 133.105 62.3822 132.986 62.0723C132.872 61.7624 132.69 61.5072 132.439 61.3066C132.189 61.1061 131.847 61.0059 131.414 61.0059C131.127 61.0059 130.863 61.0674 130.621 61.1904C130.38 61.3089 130.172 61.4867 129.999 61.7236C129.826 61.9606 129.691 62.25 129.596 62.5918C129.5 62.9336 129.452 63.3278 129.452 63.7744V64.0615C129.452 64.4124 129.5 64.7428 129.596 65.0527C129.696 65.3581 129.84 65.627 130.026 65.8594C130.218 66.0918 130.448 66.2741 130.717 66.4062C130.99 66.5384 131.3 66.6045 131.646 66.6045C132.093 66.6045 132.471 66.5133 132.781 66.3311C133.091 66.1488 133.362 65.9049 133.595 65.5996L134.36 66.208C134.201 66.4495 133.998 66.6797 133.752 66.8984C133.506 67.1172 133.203 67.2949 132.843 67.4316C132.487 67.5684 132.066 67.6367 131.578 67.6367ZM143.767 66.2354V62.4277C143.767 62.1361 143.707 61.8831 143.589 61.6689C143.475 61.4502 143.302 61.2816 143.069 61.1631C142.837 61.0446 142.55 60.9854 142.208 60.9854C141.889 60.9854 141.609 61.04 141.367 61.1494C141.13 61.2588 140.943 61.4023 140.807 61.5801C140.674 61.7578 140.608 61.9492 140.608 62.1543H139.344C139.344 61.89 139.412 61.6279 139.549 61.3682C139.686 61.1084 139.882 60.8737 140.137 60.6641C140.396 60.4499 140.706 60.2812 141.066 60.1582C141.431 60.0306 141.837 59.9668 142.283 59.9668C142.821 59.9668 143.295 60.0579 143.705 60.2402C144.12 60.4225 144.443 60.6982 144.676 61.0674C144.913 61.432 145.031 61.89 145.031 62.4414V65.8867C145.031 66.1328 145.052 66.3949 145.093 66.6729C145.138 66.9508 145.204 67.1901 145.291 67.3906V67.5H143.972C143.908 67.3542 143.858 67.1605 143.821 66.9189C143.785 66.6729 143.767 66.445 143.767 66.2354ZM143.985 63.0156L143.999 63.9043H142.721C142.361 63.9043 142.039 63.9339 141.757 63.9932C141.474 64.0479 141.237 64.1322 141.046 64.2461C140.854 64.36 140.709 64.5036 140.608 64.6768C140.508 64.8454 140.458 65.0436 140.458 65.2715C140.458 65.5039 140.51 65.7158 140.615 65.9072C140.72 66.0986 140.877 66.2513 141.087 66.3652C141.301 66.4746 141.563 66.5293 141.873 66.5293C142.26 66.5293 142.602 66.4473 142.898 66.2832C143.195 66.1191 143.429 65.9186 143.603 65.6816C143.78 65.4447 143.876 65.2145 143.89 64.9912L144.43 65.5996C144.398 65.791 144.311 66.0029 144.17 66.2354C144.029 66.4678 143.84 66.6911 143.603 66.9053C143.37 67.1149 143.092 67.2904 142.769 67.4316C142.45 67.5684 142.09 67.6367 141.688 67.6367C141.187 67.6367 140.747 67.5387 140.369 67.3428C139.995 67.1468 139.704 66.8848 139.494 66.5566C139.289 66.224 139.187 65.8525 139.187 65.4424C139.187 65.0459 139.264 64.6973 139.419 64.3965C139.574 64.0911 139.797 63.8382 140.089 63.6377C140.381 63.4326 140.731 63.2777 141.142 63.1729C141.552 63.068 142.01 63.0156 142.516 63.0156H143.985ZM148.285 61.5254V70.3438H147.014V60.1035H148.176L148.285 61.5254ZM153.269 63.7402V63.8838C153.269 64.4215 153.205 64.9206 153.077 65.3809C152.95 65.8366 152.763 66.2331 152.517 66.5703C152.275 66.9076 151.977 67.1696 151.621 67.3564C151.266 67.5433 150.858 67.6367 150.397 67.6367C149.928 67.6367 149.513 67.5592 149.153 67.4043C148.793 67.2493 148.488 67.0238 148.237 66.7275C147.987 66.4313 147.786 66.0758 147.636 65.6611C147.49 65.2464 147.39 64.7793 147.335 64.2598V63.4941C147.39 62.9473 147.492 62.4574 147.643 62.0244C147.793 61.5915 147.991 61.2223 148.237 60.917C148.488 60.6071 148.791 60.3724 149.146 60.2129C149.502 60.0488 149.912 59.9668 150.377 59.9668C150.842 59.9668 151.254 60.0579 151.614 60.2402C151.974 60.418 152.277 60.6732 152.523 61.0059C152.77 61.3385 152.954 61.7373 153.077 62.2021C153.205 62.6624 153.269 63.1751 153.269 63.7402ZM151.997 63.8838V63.7402C151.997 63.3711 151.958 63.0247 151.881 62.7012C151.803 62.373 151.683 62.0859 151.519 61.8398C151.359 61.5892 151.154 61.3932 150.903 61.252C150.653 61.1061 150.354 61.0332 150.008 61.0332C149.689 61.0332 149.411 61.0879 149.174 61.1973C148.941 61.3066 148.743 61.4548 148.579 61.6416C148.415 61.8239 148.281 62.0335 148.176 62.2705C148.076 62.5029 148 62.7445 147.95 62.9951V64.7656C148.041 65.0846 148.169 65.3854 148.333 65.668C148.497 65.946 148.716 66.1715 148.989 66.3447C149.263 66.5133 149.607 66.5977 150.021 66.5977C150.363 66.5977 150.657 66.527 150.903 66.3857C151.154 66.2399 151.359 66.0417 151.519 65.791C151.683 65.5404 151.803 65.2533 151.881 64.9297C151.958 64.6016 151.997 64.2529 151.997 63.8838ZM156.146 61.5254V70.3438H154.875V60.1035H156.037L156.146 61.5254ZM161.13 63.7402V63.8838C161.13 64.4215 161.066 64.9206 160.938 65.3809C160.811 65.8366 160.624 66.2331 160.378 66.5703C160.136 66.9076 159.838 67.1696 159.482 67.3564C159.127 67.5433 158.719 67.6367 158.259 67.6367C157.789 67.6367 157.375 67.5592 157.015 67.4043C156.655 67.2493 156.349 67.0238 156.099 66.7275C155.848 66.4313 155.647 66.0758 155.497 65.6611C155.351 65.2464 155.251 64.7793 155.196 64.2598V63.4941C155.251 62.9473 155.354 62.4574 155.504 62.0244C155.654 61.5915 155.853 61.2223 156.099 60.917C156.349 60.6071 156.652 60.3724 157.008 60.2129C157.363 60.0488 157.773 59.9668 158.238 59.9668C158.703 59.9668 159.116 60.0579 159.476 60.2402C159.836 60.418 160.139 60.6732 160.385 61.0059C160.631 61.3385 160.815 61.7373 160.938 62.2021C161.066 62.6624 161.13 63.1751 161.13 63.7402ZM159.858 63.8838V63.7402C159.858 63.3711 159.82 63.0247 159.742 62.7012C159.665 62.373 159.544 62.0859 159.38 61.8398C159.22 61.5892 159.015 61.3932 158.765 61.252C158.514 61.1061 158.215 61.0332 157.869 61.0332C157.55 61.0332 157.272 61.0879 157.035 61.1973C156.803 61.3066 156.604 61.4548 156.44 61.6416C156.276 61.8239 156.142 62.0335 156.037 62.2705C155.937 62.5029 155.862 62.7445 155.812 62.9951V64.7656C155.903 65.0846 156.03 65.3854 156.194 65.668C156.358 65.946 156.577 66.1715 156.851 66.3447C157.124 66.5133 157.468 66.5977 157.883 66.5977C158.225 66.5977 158.519 66.527 158.765 66.3857C159.015 66.2399 159.22 66.0417 159.38 65.791C159.544 65.5404 159.665 65.2533 159.742 64.9297C159.82 64.6016 159.858 64.2529 159.858 63.8838ZM162.764 66.8301C162.764 66.6159 162.83 66.4359 162.962 66.29C163.099 66.1396 163.295 66.0645 163.55 66.0645C163.805 66.0645 163.999 66.1396 164.131 66.29C164.268 66.4359 164.336 66.6159 164.336 66.8301C164.336 67.0397 164.268 67.2174 164.131 67.3633C163.999 67.5091 163.805 67.582 163.55 67.582C163.295 67.582 163.099 67.5091 162.962 67.3633C162.83 67.2174 162.764 67.0397 162.764 66.8301Z" fill="white"/>
<g clip-path="url(#clip1_424_3098)">
<path opacity="0.43" d="M304.5 53C311.127 53 316.5 47.6274 316.5 41C316.5 34.3726 311.127 29 304.5 29C297.873 29 292.5 34.3726 292.5 41C292.5 47.6274 297.873 53 304.5 53Z" fill="white"/>
<path d="M307.96 39.858L303.6 35.494L304.75 34.343L311.079 40.672L304.75 47.001L303.6 45.85L307.96 41.486H298.06V39.858H307.96Z" fill="white"/>
</g>
</svg>
