<svg width="21" height="21" viewBox="0 0 21 21" fill="none" xmlns="http://www.w3.org/2000/svg">
<path d="M6.025 17.898C5.66667 17.898 5.325 17.7647 5.05833 17.5147C4.79167 17.273 4.63333 16.9397 4.60833 16.5814L3.875 6.23135H2.75C2.6 6.23135 2.45 6.16469 2.33333 6.05635C2.23333 5.94802 2.16667 5.79802 2.16667 5.64802C2.16667 5.48969 2.225 5.34802 2.34167 5.23135C2.45 5.13135 2.6 5.06469 2.75 5.06469H6.33333V3.14802C6.33333 2.77302 6.48333 2.41469 6.75 2.14802C7.00833 1.88135 7.375 1.73135 7.75 1.73135H12.75C13.125 1.73135 13.4917 1.88135 13.75 2.14802C14.0167 2.41469 14.1667 2.77302 14.1667 3.14802V5.06469H17.75C17.9 5.06469 18.05 5.13135 18.1667 5.23969C18.275 5.34802 18.3417 5.49802 18.3417 5.65635C18.3417 5.80635 18.275 5.95635 18.1667 6.07302C18.0583 6.18135 17.9083 6.24802 17.75 6.24802H16.625L15.8833 16.598C15.8583 16.9564 15.7 17.2897 15.4333 17.5397C15.1667 17.7814 14.825 17.923 14.4667 17.923H6.025V17.898ZM5.79167 16.7314H14.7083L15.4583 6.23135H5.04167L5.79167 16.7314ZM7.5 5.06469H13V2.89802H7.5V5.06469ZM11.9167 14.5647C11.7667 14.5647 11.6167 14.498 11.5 14.3897C11.4 14.2814 11.3333 14.1314 11.3333 13.9814V8.98135C11.3333 8.82302 11.3917 8.68135 11.5083 8.56469C11.6167 8.46469 11.7667 8.39802 11.9167 8.39802C12.0667 8.39802 12.2167 8.46469 12.3333 8.57302C12.4417 8.68135 12.5083 8.83135 12.5083 8.98969V13.9897C12.5083 14.1397 12.4417 14.2897 12.3333 14.4064C12.2167 14.5064 12.0667 14.5647 11.9167 14.5647ZM8.58333 14.5647C8.43333 14.5647 8.28333 14.498 8.16667 14.3897C8.06667 14.2814 8 14.1314 8 13.9814V8.98135C8 8.82302 8.05833 8.68135 8.175 8.56469C8.28333 8.46469 8.43333 8.39802 8.58333 8.39802C8.73333 8.39802 8.88333 8.46469 9 8.57302C9.10833 8.68135 9.16667 8.82302 9.16667 8.98135V13.9814C9.16667 14.1314 9.1 14.2814 8.99167 14.398C8.88333 14.5064 8.73333 14.5647 8.58333 14.5647Z" fill="white"/>
</svg>
