<svg width="161" height="60" viewBox="0 0 161 60" fill="none" xmlns="http://www.w3.org/2000/svg">
    <defs>
        <linearGradient id="paint0_linear_793_818" x1="16.2503" y1="13.9998" x2="16.2503" y2="45.5005" gradientUnits="userSpaceOnUse">
            <stop stop-color="#0FE3A7"/>
            <stop offset="1" stop-color="#00BADA"/>
        </linearGradient>
        <linearGradient id="paint1_linear_793_818" x1="97.5" y1="0" x2="97.5" y2="60" gradientUnits="userSpaceOnUse">
            <stop stop-color="#0FE3A7"/>
            <stop offset="1" stop-color="#00BADA"/>
        </linearGradient>
    </defs><path fill-rule="evenodd" clip-rule="evenodd" d="M5.45911 17.0148C2.19575 17.5902 0.0167373 20.7021 0.592157 23.9655L3.51493 40.5414C4.09035 43.8048 7.20231 45.9838 10.4657 45.4083L27.0416 42.4856C30.3049 41.9101 32.4839 38.7982 31.9085 35.5348L28.9857 18.9589C28.4103 15.6956 25.2984 13.5166 22.035 14.092L5.45911 17.0148ZM24.9413 32.5769C25.6072 36.3532 22.669 39.4476 18.1828 40.2387C13.4978 41.0648 10.0024 39.339 9.3165 35.4491L9.22639 34.938L13.0311 34.2671L13.1062 34.693C13.4317 36.5386 15.115 37.6178 17.784 37.1471C20.1407 36.7316 21.4887 35.4107 21.1633 33.5651C20.968 32.4577 20.2884 31.7578 18.8938 31.6524L13.4625 31.2341C10.3176 30.9982 8.65255 29.8572 8.12687 26.8759C7.466 23.128 9.90984 20.3842 14.3676 19.5982C18.7686 18.8222 21.9818 20.7734 22.5976 24.2658L22.6827 24.7485L19.0199 25.3943L18.9498 24.9968C18.6544 23.3216 17.3502 22.2341 14.9083 22.6647C12.8072 23.0352 11.5945 24.1273 11.8999 25.8593C12.1052 27.0234 12.8166 27.5714 13.974 27.66L19.6809 28.1469C22.7406 28.3978 24.4657 29.8795 24.9413 32.5769Z" fill="url(#paint0_linear_793_818)"/>
<path d="M35.55 30.71C35.55 35.36 39.15 38.36 43.65 38.36C48.15 38.36 51.75 35.36 51.75 30.71C51.75 26.06 48.15 23.06 43.65 23.06C39.15 23.06 35.55 26.06 35.55 30.71ZM40.05 30.71C40.05 28.52 41.4 27.02 43.65 27.02C45.9 27.02 47.25 28.52 47.25 30.71C47.25 32.9 45.9 34.4 43.65 34.4C41.4 34.4 40.05 32.9 40.05 30.71ZM55.0005 38H59.5005V31.91C59.5005 29 59.9205 27.02 63.3405 27.02C64.0005 27.02 64.6305 27.14 65.2605 27.32V23.21C64.8405 23.09 64.2705 23.06 63.7605 23.06C61.7805 23.06 60.5205 23.99 59.5605 25.76H59.5005V23.42H55.0005V38ZM81.8573 23.42H77.3573V30.68C77.3573 32.57 76.9973 34.4 74.6573 34.4C72.3473 34.4 72.3173 32.24 72.3173 30.56V23.42H67.8173V31.46C67.8173 35.36 68.6573 38.36 73.2173 38.36C75.4073 38.36 76.8773 37.16 77.4773 36.02H77.5373V38H81.8573V23.42ZM99.9239 18.44C98.1239 16.85 95.8139 16.22 93.4139 16.22C89.2439 16.22 85.3139 18.59 85.3139 23.12C85.3139 30.2 95.2739 28.1 95.2739 32C95.2739 33.5 93.5639 34.22 92.0339 34.22C90.4739 34.22 88.9139 33.47 87.9539 32.21L84.6239 35.87C86.6339 37.73 89.0339 38.54 91.7639 38.54C96.1439 38.54 99.9539 36.29 99.9539 31.55C99.9539 24.11 90.1739 26.6 90.1739 22.73C90.1739 21.14 92.0039 20.54 93.3239 20.54C94.4639 20.54 95.9639 20.99 96.7139 21.95L99.9239 18.44ZM112.62 38H116.76V30.59C116.76 25.73 115.35 23.06 110.1 23.06C107.73 23.06 105.33 23.84 103.68 25.4L106.08 27.86C107.04 26.78 108.27 26.12 109.74 26.12C111.3 26.12 112.62 27.14 112.62 28.73C108.87 28.73 102.75 28.82 102.75 33.86C102.75 36.8 105.21 38.36 107.94 38.36C109.77 38.36 111.57 37.73 112.56 36.17H112.62V38ZM112.62 31.61V32.57C112.62 34.37 110.97 35.3 109.2 35.3C108.21 35.3 107.07 34.79 107.07 33.71C107.07 31.73 110.13 31.61 111.51 31.61H112.62ZM120.184 38H124.684V30.62H124.744L129.664 38H135.334L129.394 29.99L135.184 23.42H129.664L124.684 29.18V15.32H120.184V38ZM137.514 38H142.014V15.32H137.514V38ZM154.997 38H159.137V30.59C159.137 25.73 157.727 23.06 152.477 23.06C150.107 23.06 147.707 23.84 146.057 25.4L148.457 27.86C149.417 26.78 150.647 26.12 152.117 26.12C153.677 26.12 154.997 27.14 154.997 28.73C151.247 28.73 145.127 28.82 145.127 33.86C145.127 36.8 147.587 38.36 150.317 38.36C152.147 38.36 153.947 37.73 154.937 36.17H154.997V38ZM154.997 31.61V32.57C154.997 34.37 153.347 35.3 151.577 35.3C150.587 35.3 149.447 34.79 149.447 33.71C149.447 31.73 152.507 31.61 153.887 31.61H154.997Z" fill="url(#paint1_linear_793_818)"/>

</svg>
