<svg width="55" height="52" viewBox="0 0 55 52" fill="none" xmlns="http://www.w3.org/2000/svg">
    <defs>
        <filter id="filter0_d_793_2325" x="0" y="0.352982" width="54.6835" height="54.6835" filterUnits="userSpaceOnUse" color-interpolation-filters="sRGB">
            <feFlood flood-opacity="0" result="BackgroundImageFix"/>
            <feColorMatrix in="SourceAlpha" type="matrix" values="0 0 0 0 0 0 0 0 0 0 0 0 0 0 0 0 0 0 127 0" result="hardAlpha"/>
            <feOffset dy="4"/>
            <feGaussianBlur stdDeviation="4"/>
            <feComposite in2="hardAlpha" operator="out"/>
            <feColorMatrix type="matrix" values="0 0 0 0 0.0588235 0 0 0 0 0.886275 0 0 0 0 0.658824 0 0 0 0.5 0"/>
            <feBlend mode="normal" in2="BackgroundImageFix" result="effect1_dropShadow_793_2325"/>
            <feBlend mode="normal" in="SourceGraphic" in2="effect1_dropShadow_793_2325" result="shape"/>
        </filter>
        <linearGradient id="paint0_linear_793_2325" x1="27.3417" y1="4.35298" x2="27.3417" y2="43.0364" gradientUnits="userSpaceOnUse">
            <stop stop-color="#0FE3A7"/>
            <stop offset="1" stop-color="#00BADA"/>
        </linearGradient>
    </defs> <g filter="url(#filter0_d_793_2325)">
<path d="M35.938 4.35298H18.7454C12.8109 4.35298 8 9.16386 8 15.0984V32.291C8 38.2256 12.8109 43.0364 18.7454 43.0364H35.938C41.8726 43.0364 46.6835 38.2256 46.6835 32.291V15.0984C46.6835 9.16386 41.8726 4.35298 35.938 4.35298Z" fill="url(#paint0_linear_793_2325)"/>
<path d="M34.9791 18.4982H28.6631C28.41 18.4993 28.1663 18.4028 27.9826 18.2288L26.0119 16.2662C25.5272 15.8224 24.891 15.5808 24.2339 15.5908H19.9434C19.3089 15.5728 18.6932 15.8074 18.2316 16.2432C17.77 16.6789 17.5003 17.28 17.4818 17.9145V29.2299C17.5003 29.8638 17.7696 30.4645 18.2305 30.9001C18.6914 31.3358 19.3064 31.5708 19.9404 31.5536H34.9901C35.6234 31.5678 36.2365 31.3305 36.6952 30.8937C37.154 30.4569 37.4209 29.8561 37.4376 29.2229V20.8229C37.4194 20.1888 37.1502 19.5879 36.6893 19.152C36.2283 18.7161 35.6133 18.481 34.9791 18.4982ZM35.934 29.2269C35.928 29.4724 35.825 29.7057 35.6476 29.8756C35.4702 30.0455 35.2327 30.1384 34.9871 30.1338H19.9404C19.695 30.1403 19.4569 30.0495 19.2781 29.8814C19.0992 29.7132 18.9941 29.4812 18.9855 29.2358V17.9145C18.9931 17.6684 19.0977 17.4352 19.2767 17.2661C19.4556 17.0969 19.6942 17.0054 19.9404 17.0115H24.2788C24.5215 17.0098 24.7562 17.0984 24.9373 17.26L26.898 19.2136C27.3728 19.6684 28.0055 19.9216 28.6631 19.92H34.9791C35.2245 19.9135 35.4625 20.0042 35.6414 20.1724C35.8202 20.3406 35.9254 20.5726 35.934 20.8179V29.2219V29.2269Z" fill="white"/>
</g>

</svg>
