<svg width="15" height="24" viewBox="0 0 15 24" fill="none" xmlns="http://www.w3.org/2000/svg">
<path d="M13.8961 23.0172C14.0892 22.8245 14.2425 22.5955 14.347 22.3435C14.4516 22.0915 14.5054 21.8213 14.5054 21.5485C14.5054 21.2756 14.4516 21.0054 14.347 20.7534C14.2425 20.5014 14.0892 20.2724 13.8961 20.0797L5.81278 11.9964L13.8961 3.91304C14.2856 3.5235 14.5045 2.99518 14.5045 2.44429C14.5045 1.8934 14.2856 1.36508 13.8961 0.975538C13.5066 0.586002 12.9783 0.367167 12.4274 0.367167C11.8765 0.367167 11.3481 0.586002 10.9586 0.975538L1.39611 10.538C1.20298 10.7308 1.04976 10.9597 0.94521 11.2117C0.840666 11.4638 0.786855 11.7339 0.786855 12.0068C0.786855 12.2796 0.840666 12.5498 0.94521 12.8018C1.04976 13.0539 1.20298 13.2828 1.39611 13.4755L10.9586 23.038C11.7503 23.8297 13.0836 23.8297 13.8961 23.0172Z" fill="white"/>
</svg>
