<svg width="30" height="30" viewBox="0 0 30 30" fill="none" xmlns="http://www.w3.org/2000/svg">
<path d="M26 0H4C1.79086 0 0 1.79086 0 4V26C0 28.2091 1.79086 30 4 30H26C28.2091 30 30 28.2091 30 26V4C30 1.79086 28.2091 0 26 0Z" fill="#F3F7FD"/>
<path d="M16 13H19C19.5521 13 20 12.5522 20 12C20 11.4478 19.5521 11 19 11H16.0281C15.4759 11 15.0281 11.4478 15.0281 12C15.0281 12.5522 15.4468 13 16 13ZM16 17H21C21.5521 17 22 16.5522 22 16C22 15.4478 21.5521 15 21 15H16.0281C15.4759 15 15.0281 15.4478 15.0281 16C15.0281 16.5522 15.4468 17 16 17ZM16 9H17C17.5521 9 17.9718 8.55219 17.9718 8C17.9718 7.44781 17.524 7 17 7H16C15.4478 7 15 7.44781 15 8C15 8.55219 15.4468 9 16 9ZM23 19H16.0281C15.4759 19 15.0281 19.4478 15.0281 20C15.0281 20.5522 15.4759 21 16.0281 21H23C23.5521 21 24 20.5522 24 20C24 19.4478 23.5531 19 23 19ZM12.0125 16.3344L11 17.4406V8.00094C11 7.44781 10.5531 7 9.99997 7C9.44684 7 8.99997 7.44781 8.99997 8.00094V17.4384L7.98747 16.3344C7.79022 16.1193 7.52059 16.01 7.24966 16.01C6.99952 16.0097 6.75845 16.1036 6.57434 16.2729C6.16716 16.6464 6.13997 17.2798 6.51281 17.6876L9.23469 20.6904C9.61344 21.1048 10.3303 21.1048 10.7094 20.6904L13.4312 17.6876C13.8044 17.2798 13.7769 16.6467 13.3697 16.2729C13.0187 15.9 12.3875 15.9281 12.0125 16.3344Z" fill="#004958"/>
</svg>
