<svg width="30" height="30" viewBox="0 0 30 30" fill="none" xmlns="http://www.w3.org/2000/svg">
<rect width="30" height="30" rx="5" fill="#F3F7FD"/>
<path d="M21.7268 21.3571C21.7257 21.471 21.7021 21.5836 21.6574 21.6883C21.6127 21.793 21.5478 21.8879 21.4664 21.9676C21.385 22.0472 21.2887 22.11 21.183 22.1523C21.0772 22.1946 20.9642 22.2157 20.8503 22.2143H8.5782C8.46433 22.2157 8.3513 22.1946 8.24559 22.1523C8.13987 22.11 8.04355 22.0472 7.96214 21.9676C7.88072 21.8879 7.81582 21.793 7.77114 21.6883C7.72646 21.5836 7.70289 21.471 7.70177 21.3571V13.6814H5.07141L14.1239 5.67036C14.287 5.52758 14.4964 5.44887 14.7132 5.44887C14.93 5.44887 15.1394 5.52758 15.3025 5.67036L24.3571 13.6814H21.7268V21.3571ZM13.8378 15.3882V20.5086H15.5907V15.3882H13.8378Z" fill="#7A899E"/>
</svg>
