<svg width="30" height="30" viewBox="0 0 30 30" fill="none" xmlns="http://www.w3.org/2000/svg">
<rect width="30" height="30" rx="5" fill="#F3F7FD"/>
<path d="M13.905 11.3336C14.0039 11.0569 14.068 10.769 14.0957 10.4764V10.2857C14.2001 9.9768 14.2001 9.64213 14.0957 9.33321V9.23786L14.0004 9.1425C14.0007 9.1551 13.9984 9.16763 13.9937 9.17934C13.989 9.19104 13.982 9.20167 13.9731 9.21058C13.9642 9.21949 13.9535 9.22651 13.9418 9.2312C13.9301 9.23588 13.9176 9.23815 13.905 9.23786C13.7125 9.92316 13.7125 10.6483 13.905 11.3336ZM11.0475 17.9046C10.8769 17.9783 10.7169 18.0745 10.5718 18.1907C10.0561 18.6056 9.63402 19.1248 9.33321 19.7143C9.90429 19.6189 10.4764 19.0479 11.0475 17.9046ZM19.8096 16.4764C19.7143 16.3811 19.3339 16.095 18 16.095H17.8093V16.1904C18.3781 16.4589 18.9916 16.6202 19.6189 16.6661H19.905V16.5718C19.8924 16.5721 19.8799 16.5698 19.8682 16.5651C19.8565 16.5604 19.8458 16.5534 19.8369 16.5445C19.828 16.5356 19.821 16.525 19.8163 16.5133C19.8116 16.5016 19.8093 16.489 19.8096 16.4764ZM21.2379 6H7.905C7.4002 6.00141 6.91647 6.20257 6.55952 6.55952C6.20257 6.91647 6.00141 7.4002 6 7.905V21.2379C6.00141 21.7427 6.20257 22.2264 6.55952 22.5833C6.91647 22.9403 7.4002 23.1414 7.905 23.1429H21.2379C21.7427 23.1414 22.2264 22.9403 22.5833 22.5833C22.9403 22.2264 23.1414 21.7427 23.1429 21.2379V7.905C23.1414 7.4002 22.9403 6.91647 22.5833 6.55952C22.2264 6.20257 21.7427 6.00141 21.2379 6ZM20.19 17.2382C19.9231 17.3678 19.6295 17.4331 19.3329 17.4289C18.3435 17.4153 17.3687 17.188 16.4754 16.7625C15.1787 16.8575 13.8989 17.1134 12.6654 17.5243C12.57 17.5243 12.57 17.5243 12.4746 17.6196C11.3336 19.6189 10.3811 20.5714 9.61929 20.5714C9.42857 20.5714 9.33321 20.5714 9.23786 20.4761L8.76214 20.19V20.0946C8.6852 19.9486 8.65209 19.7834 8.66679 19.6189C8.9938 18.7464 9.64087 18.0311 10.4764 17.6186C10.6671 17.5232 10.9521 17.3325 11.3336 17.1429C11.6196 16.6671 11.9046 16.095 12.2861 15.4286C12.7025 14.5347 13.0527 13.6115 13.3339 12.6664C12.8869 11.6778 12.819 10.5593 13.1432 9.52393C13.2386 9.1425 13.5246 8.76214 13.905 8.76214H14.0957C14.298 8.78202 14.4932 8.84721 14.6668 8.95286C15.3332 9.61929 15.0482 11.1429 14.6668 12.3814V12.4768C14.9924 13.4013 15.5119 14.2455 16.1904 14.9529C16.461 15.165 16.7475 15.3559 17.0475 15.5239C17.5232 15.5239 17.9046 15.4286 18.2861 15.4286C19.4293 15.4286 20.1911 15.6193 20.4761 16.095C20.5537 16.2748 20.5864 16.4708 20.5714 16.6661C20.4556 16.8641 20.3283 17.0552 20.19 17.2382ZM14.0004 13.5236C13.7308 14.3044 13.4126 15.0677 13.0479 15.8089C12.8571 16.1904 12.6664 16.4754 12.4768 16.8568H12.6675C13.6792 16.4532 14.7335 16.1656 15.81 15.9996C15.6666 15.9287 15.5373 15.8321 15.4286 15.7146C14.8556 15.0522 14.3751 14.3152 14.0004 13.5236Z" fill="#7A899E"/>
</svg>
