<svg width="30" height="30" viewBox="0 0 30 30" fill="none" xmlns="http://www.w3.org/2000/svg">
<rect width="30" height="30" rx="5" fill="#F3F7FD"/>
<path d="M21.2379 6H7.905C7.4002 6.00141 6.91647 6.20257 6.55952 6.55952C6.20257 6.91647 6.00141 7.4002 6 7.905V21.2379C6.00141 21.7427 6.20257 22.2264 6.55952 22.5833C6.91647 22.9403 7.4002 23.1414 7.905 23.1429H21.2379C21.7427 23.1414 22.2264 22.9403 22.5833 22.5833C22.9403 22.2264 23.1414 21.7427 23.1429 21.2379V7.905C23.1414 7.4002 22.9403 6.91647 22.5833 6.55952C22.2264 6.20257 21.7427 6.00141 21.2379 6Z" fill="#7A899E" stroke="#7A899E" stroke-width="2"/>
<path d="M13.3251 8.22427L19.8512 9.15749L20.7833 15.6846L14.7244 21.7457C14.6632 21.8069 14.5906 21.8555 14.5106 21.8886C14.4306 21.9218 14.3449 21.9388 14.2583 21.9388C14.1718 21.9388 14.0861 21.9218 14.0061 21.8886C13.9261 21.8555 13.8535 21.8069 13.7923 21.7457L7.26406 15.2175C7.20283 15.1563 7.15426 15.0836 7.12112 15.0037C7.08798 14.9237 7.07092 14.838 7.07092 14.7514C7.07092 14.6649 7.08798 14.5791 7.12112 14.4992C7.15426 14.4192 7.20283 14.3465 7.26406 14.2853L13.3251 8.22427ZM13.7912 9.62356L8.66334 14.7514L14.2583 20.3464L19.3862 15.2186L18.6876 10.3232L13.7912 9.62356ZM15.1841 13.8193C14.9788 13.6139 14.8471 13.3466 14.8093 13.0587C14.7715 12.7708 14.8297 12.4785 14.975 12.2271C15.1202 11.9757 15.3444 11.7793 15.6127 11.6683C15.8809 11.5573 16.1784 11.5379 16.4588 11.6131C16.7392 11.6883 16.987 11.854 17.1636 12.0844C17.3403 12.3148 17.436 12.597 17.4359 12.8874C17.4358 13.1777 17.34 13.4599 17.1631 13.6902C16.9863 13.9205 16.7385 14.086 16.458 14.1611C16.2343 14.2209 15.9989 14.2208 15.7752 14.1608C15.5516 14.1009 15.3477 13.983 15.1841 13.8193Z" fill="white"/>
</svg>
