<svg width="30" height="30" viewBox="0 0 30 30" fill="none" xmlns="http://www.w3.org/2000/svg">
<rect width="30" height="30" rx="5" fill="#F3F7FD"/>
<path d="M22.1429 5H7.14286C6.57454 5 6.02949 5.22576 5.62763 5.62763C5.22576 6.02949 5 6.57454 5 7.14286V22.1429C5 22.7112 5.22576 23.2562 5.62763 23.6581C6.02949 24.0599 6.57454 24.2857 7.14286 24.2857H22.1429C22.7112 24.2857 23.2562 24.0599 23.6581 23.6581C24.0599 23.2562 24.2857 22.7112 24.2857 22.1429V7.14286C24.2857 6.57454 24.0599 6.02949 23.6581 5.62763C23.2562 5.22576 22.7112 5 22.1429 5ZM18.6607 14.6429C18.6607 14.8786 18.6286 15.0929 18.5964 15.3179L19.4964 16.1C19.6893 16.2714 19.7321 16.55 19.6036 16.775L18.9714 17.8679C18.8429 18.0929 18.575 18.1893 18.3393 18.1036L17.2036 17.7179C16.8607 18.0071 16.475 18.2321 16.0464 18.3929L15.8107 19.5607C15.7571 19.8071 15.5429 19.9893 15.2857 19.9893H14.0214C13.7643 19.9893 13.55 19.8071 13.4964 19.5607L13.2607 18.3929C12.8321 18.2321 12.4464 18.0071 12.1036 17.7179L10.9679 18.1036C10.8515 18.1435 10.7249 18.1419 10.6096 18.0989C10.4943 18.0559 10.3975 17.9743 10.3357 17.8679L9.70357 16.775C9.64064 16.6674 9.61692 16.5414 9.63646 16.4183C9.65599 16.2953 9.71757 16.1828 9.81071 16.1L10.7107 15.3179C10.6571 15.0929 10.625 14.8786 10.625 14.6429C10.625 14.4071 10.6571 14.1929 10.6893 13.9679L9.78929 13.1857C9.69614 13.1029 9.63457 12.9904 9.61503 12.8674C9.5955 12.7443 9.61921 12.6183 9.68214 12.5107L10.3143 11.4179C10.4429 11.1929 10.7107 11.0964 10.9464 11.1821L12.0821 11.5679C12.425 11.2786 12.8107 11.0536 13.2393 10.8929L13.475 9.725C13.5393 9.46786 13.7536 9.28571 14.0107 9.28571H15.275C15.5321 9.28571 15.7464 9.46786 15.8 9.71429L16.0357 10.8821C16.4643 11.0429 16.85 11.2679 17.1929 11.5571L18.3286 11.1714C18.575 11.0857 18.8321 11.1929 18.9607 11.4071L19.5929 12.5C19.7214 12.725 19.6786 13.0036 19.4857 13.175L18.5857 13.9571C18.6286 14.1929 18.6607 14.4071 18.6607 14.6429Z" fill="#7A899E"/>
</svg>
