<svg width="25" height="26" viewBox="0 0 25 26" fill="none" xmlns="http://www.w3.org/2000/svg">
<path d="M2 13C2 11.5555 2.28452 10.1251 2.83733 8.79048C3.39013 7.4559 4.20038 6.24327 5.22183 5.22183C6.24327 4.20038 7.4559 3.39013 8.79048 2.83733C10.1251 2.28452 11.5555 2 13 2C14.4445 2 15.8749 2.28452 17.2095 2.83733C18.5441 3.39013 19.7567 4.20038 20.7782 5.22183C21.7996 6.24327 22.6099 7.4559 23.1627 8.79048C23.7155 10.1251 24 11.5555 24 13C24 15.9174 22.8411 18.7153 20.7782 20.7782C18.7153 22.8411 15.9174 24 13 24C10.0826 24 7.28473 22.8411 5.22183 20.7782C3.15893 18.7153 2 15.9174 2 13ZM13 7.5C12.7569 7.5 12.5237 7.59658 12.3518 7.76849C12.1799 7.94039 12.0833 8.17355 12.0833 8.41667V12.0833H8.41667C8.17355 12.0833 7.94039 12.1799 7.76849 12.3518C7.59658 12.5237 7.5 12.7569 7.5 13C7.5 13.2431 7.59658 13.4763 7.76849 13.6482C7.94039 13.8201 8.17355 13.9167 8.41667 13.9167H12.0833V17.5833C12.0833 17.8264 12.1799 18.0596 12.3518 18.2315C12.5237 18.4034 12.7569 18.5 13 18.5C13.2431 18.5 13.4763 18.4034 13.6482 18.2315C13.8201 18.0596 13.9167 17.8264 13.9167 17.5833V13.9167H17.5833C17.8264 13.9167 18.0596 13.8201 18.2315 13.6482C18.4034 13.4763 18.5 13.2431 18.5 13C18.5 12.7569 18.4034 12.5237 18.2315 12.3518C18.0596 12.1799 17.8264 12.0833 17.5833 12.0833H13.9167V8.41667C13.9167 8.17355 13.8201 7.94039 13.6482 7.76849C13.4763 7.59658 13.2431 7.5 13 7.5Z" fill="#514EF3"/>
</svg>
