<svg width="25" height="25" viewBox="0 0 25 25" fill="none" xmlns="http://www.w3.org/2000/svg">
<path d="M4.72 13.9424L4.72061 13.9421C6.65636 12.8272 9.13666 13.4881 10.2484 15.4184L10.2492 15.4198C10.5158 15.8806 10.6891 16.3894 10.7592 16.9171C10.8292 17.4449 10.7946 17.9812 10.6573 18.4956C10.52 19.01 10.2827 19.4923 9.95901 19.9149C9.63546 20.3374 9.23189 20.6921 8.77133 20.9586C7.83933 21.4953 6.73238 21.64 5.69374 21.3609C4.65487 21.0817 3.76941 20.4014 3.23202 19.4695L3.23197 19.4694C2.96633 19.0089 2.79409 18.5005 2.72512 17.9734C2.65614 17.4463 2.69177 16.9107 2.82998 16.3974C2.96819 15.884 3.20626 15.403 3.53057 14.9817C3.85488 14.5605 4.25907 14.2073 4.72 13.9424ZM14.6674 15.4198L14.6682 15.4184C15.7798 13.4884 18.2595 12.8274 20.1951 13.9415C22.139 15.0655 22.7986 17.5344 21.6848 19.4812C20.5607 21.4131 18.0915 22.0727 16.1445 20.9582C15.6843 20.6916 15.281 20.3372 14.9576 19.9149C14.6339 19.4923 14.3967 19.01 14.2594 18.4956C14.1221 17.9812 14.0874 17.4449 14.1575 16.9171C14.2275 16.3894 14.4008 15.8806 14.6674 15.4198ZM12.4583 3.49414C14.6949 3.49414 16.5083 5.31713 16.5083 7.54414C16.5083 9.78193 14.6961 11.5941 12.4583 11.5941C10.2205 11.5941 8.40831 9.78193 8.40831 7.54414C8.40831 5.31713 10.2217 3.49414 12.4583 3.49414Z" stroke="#004958" stroke-width="1.5"/>
</svg>
