<svg width="24" height="23" viewBox="0 0 24 23" fill="none" xmlns="http://www.w3.org/2000/svg">
<path d="M10.9939 0.5L21.9005 1.997L23.4583 12.4674L13.3325 22.1902C13.2302 22.2884 13.1088 22.3663 12.9751 22.4195C12.8415 22.4726 12.6982 22.5 12.5535 22.5C12.4089 22.5 12.2656 22.4726 12.132 22.4195C11.9983 22.3663 11.8769 22.2884 11.7746 22.1902L0.864459 11.7181C0.762132 11.6199 0.680958 11.5033 0.625575 11.3751C0.570193 11.2468 0.541687 11.1093 0.541687 10.9704C0.541687 10.8316 0.570193 10.6941 0.625575 10.5658C0.680958 10.4375 0.762132 10.3209 0.864459 10.2228L10.9939 0.5ZM11.7728 2.74464L3.20299 10.9704L12.5535 19.9455L21.1234 11.7198L19.9559 3.86696L11.7728 2.74464ZM14.1006 9.47513C13.7576 9.14569 13.5375 8.71682 13.4743 8.25504C13.4111 7.79327 13.5085 7.32438 13.7512 6.92111C13.994 6.51785 14.3686 6.20273 14.8169 6.02464C15.2653 5.84655 15.7623 5.81543 16.231 5.93612C16.6996 6.05681 17.1137 6.32255 17.409 6.69214C17.7042 7.06173 17.8642 7.5145 17.864 7.98025C17.8639 8.44599 17.7036 8.89867 17.4081 9.26808C17.1126 9.63749 16.6984 9.90299 16.2297 10.0234C15.8559 10.1194 15.4623 10.1193 15.0886 10.0231C14.7149 9.92682 14.3741 9.73785 14.1006 9.47513Z" fill="#004958"/>
</svg>
