<svg width="35" height="35" viewBox="0 0 35 35" fill="none" xmlns="http://www.w3.org/2000/svg">
<path d="M9.86364 16.5454H7V18.4545H9.86364V16.5454Z" fill="white"/>
<path d="M28 16.5454H25.1364V18.4545H28V16.5454Z" fill="white"/>
<path d="M18.4546 25.1362H16.5455V27.9999H18.4546V25.1362Z" fill="white"/>
<path d="M18.4546 7H16.5455V9.86364H18.4546V7Z" fill="white"/>
<path d="M23.5747 22.2248L22.2247 23.5747L24.2496 25.5996L25.5996 24.2497L23.5747 22.2248Z" fill="white"/>
<path d="M10.7504 9.40059L9.40045 10.7505L11.4253 12.7754L12.7753 11.4255L10.7504 9.40059Z" fill="white"/>
<path d="M24.2496 9.40035L22.2247 11.4253L23.5747 12.7752L25.5995 10.7502L24.2496 9.40035Z" fill="white"/>
<path d="M11.4254 22.2246L9.40045 24.2495L10.7504 25.5995L12.7753 23.5746L11.4254 22.2246Z" fill="white"/>
<path d="M17.4999 23.2273C20.663 23.2273 23.2272 20.6631 23.2272 17.5C23.2272 14.3369 20.663 11.7727 17.4999 11.7727C14.3369 11.7727 11.7727 14.3369 11.7727 17.5C11.7727 20.6631 14.3369 23.2273 17.4999 23.2273Z" fill="white"/>
</svg>
