<svg width="24" height="24" viewBox="0 0 24 24" fill="none" xmlns="http://www.w3.org/2000/svg">
<path fill-rule="evenodd" clip-rule="evenodd" d="M16.0001 20V18H8.00006C6.90006 18 6.00006 17.1 6.00006 16V8H4.00006C3.73484 8 3.48049 7.89464 3.29295 7.70711C3.10542 7.51957 3.00006 7.26522 3.00006 7C3.00006 6.73478 3.10542 6.48043 3.29295 6.29289C3.48049 6.10536 3.73484 6 4.00006 6H6.00006V4C6.00006 3.73478 6.10542 3.48043 6.29295 3.29289C6.48049 3.10536 6.73484 3 7.00006 3C7.26528 3 7.51963 3.10536 7.70717 3.29289C7.8947 3.48043 8.00006 3.73478 8.00006 4V6H17.0001L19.0001 4L20.0001 5L18.0001 7V16H20.0001C20.2653 16 20.5196 16.1054 20.7072 16.2929C20.8947 16.4804 21.0001 16.7348 21.0001 17C21.0001 17.2652 20.8947 17.5196 20.7072 17.7071C20.5196 17.8946 20.2653 18 20.0001 18H18.0001V20C18.0001 20.2652 17.8947 20.5196 17.7072 20.7071C17.5196 20.8946 17.2653 21 17.0001 21C16.7348 21 16.4805 20.8946 16.293 20.7071C16.1054 20.5196 16.0001 20.2652 16.0001 20ZM16.0001 16V9L9.00006 16H16.0001ZM8.00006 8V15L15.0001 8H8.00006Z" fill="white"/>
</svg>
