<svg width="21" height="21" viewBox="0 0 21 21" fill="none" xmlns="http://www.w3.org/2000/svg">
<path d="M10.4167 0C4.67708 0 0 4.67708 0 10.4167C0 16.1563 4.67708 20.8333 10.4167 20.8333C16.1563 20.8333 20.8333 16.1563 20.8333 10.4167C20.8333 4.67708 16.1563 0 10.4167 0ZM13.9167 12.8125C14.2188 13.1146 14.2188 13.6146 13.9167 13.9167C13.7604 14.0729 13.5625 14.1458 13.3646 14.1458C13.1667 14.1458 12.9688 14.0729 12.8125 13.9167L10.4167 11.5208L8.02083 13.9167C7.86458 14.0729 7.66667 14.1458 7.46875 14.1458C7.27083 14.1458 7.07292 14.0729 6.91667 13.9167C6.61458 13.6146 6.61458 13.1146 6.91667 12.8125L9.3125 10.4167L6.91667 8.02083C6.61458 7.71875 6.61458 7.21875 6.91667 6.91667C7.21875 6.61458 7.71875 6.61458 8.02083 6.91667L10.4167 9.3125L12.8125 6.91667C13.1146 6.61458 13.6146 6.61458 13.9167 6.91667C14.2188 7.21875 14.2188 7.71875 13.9167 8.02083L11.5208 10.4167L13.9167 12.8125Z" fill="white"/>
</svg>
