<svg width="24" height="23" viewBox="0 0 24 23" fill="none" xmlns="http://www.w3.org/2000/svg">
<path d="M10.9939 0.5L21.9005 1.997L23.4583 12.4674L13.3324 22.1902C13.2301 22.2884 13.1087 22.3663 12.9751 22.4195C12.8414 22.4726 12.6982 22.5 12.5535 22.5C12.4088 22.5 12.2656 22.4726 12.1319 22.4195C11.9983 22.3663 11.8768 22.2884 11.7746 22.1902L0.864398 11.7181C0.762071 11.6199 0.680897 11.5033 0.625514 11.3751C0.570132 11.2468 0.541626 11.1093 0.541626 10.9704C0.541626 10.8316 0.570132 10.6941 0.625514 10.5658C0.680897 10.4375 0.762071 10.3209 0.864398 10.2228L10.9939 0.5ZM11.7728 2.74464L3.20293 10.9704L12.5535 19.9455L21.1233 11.7198L19.9559 3.86696L11.7728 2.74464ZM14.1006 9.47513C13.7576 9.14569 13.5374 8.71682 13.4743 8.25504C13.4111 7.79327 13.5084 7.32438 13.7512 6.92111C13.9939 6.51785 14.3685 6.20273 14.8169 6.02464C15.2652 5.84655 15.7623 5.81543 16.2309 5.93612C16.6996 6.05681 17.1136 6.32255 17.4089 6.69214C17.7042 7.06173 17.8641 7.5145 17.864 7.98025C17.8638 8.44599 17.7036 8.89867 17.4081 9.26808C17.1126 9.63749 16.6983 9.90299 16.2296 10.0234C15.8558 10.1194 15.4623 10.1193 15.0886 10.0231C14.7148 9.92682 14.3741 9.73785 14.1006 9.47513Z" fill="#514EF3"/>
</svg>
