<svg width="20" height="20" viewBox="0 0 20 20" fill="none" xmlns="http://www.w3.org/2000/svg">
<path d="M9.62402 18.2065C4.89324 18.2065 1.04163 14.3549 1.04163 9.62414C1.04163 4.89336 4.89324 1.04175 9.62402 1.04175C14.3548 1.04175 18.2064 4.89336 18.2064 9.62414C18.2064 14.3549 14.3548 18.2065 9.62402 18.2065ZM9.62402 2.29771C5.57983 2.29771 2.29759 5.58832 2.29759 9.62414C2.29759 13.66 5.57983 16.9506 9.62402 16.9506C13.6682 16.9506 16.9505 13.66 16.9505 9.62414C16.9505 5.58832 13.6682 2.29771 9.62402 2.29771Z" fill="white"/>
<path d="M18.4157 19.0438C18.2567 19.0438 18.0976 18.9852 17.972 18.8596L16.2974 17.185C16.0545 16.9422 16.0545 16.5403 16.2974 16.2975C16.5402 16.0547 16.9421 16.0547 17.1849 16.2975L18.8595 17.9721C19.1023 18.2149 19.1023 18.6168 18.8595 18.8596C18.7339 18.9852 18.5748 19.0438 18.4157 19.0438Z" fill="white"/>
</svg>
