<svg width="19" height="18" viewBox="0 0 19 18" fill="none" xmlns="http://www.w3.org/2000/svg">
<path d="M7.4 3H11.6L13 4.333H15.8C15.9813 4.3287 16.1568 4.39655 16.2881 4.52162C16.4193 4.64669 16.4955 4.81875 16.5 5V14.333C16.4955 14.5142 16.4193 14.6863 16.2881 14.8114C16.1568 14.9365 15.9813 15.0043 15.8 15H3.2C3.01875 15.0043 2.8432 14.9365 2.71195 14.8114C2.58069 14.6863 2.50446 14.5142 2.5 14.333V5C2.50446 4.81875 2.58069 4.64669 2.71195 4.52162C2.8432 4.39655 3.01875 4.3287 3.2 4.333H6L7.4 3ZM11.379 13.245L10.752 12.052C10.3227 12.2554 9.85018 12.3511 9.37552 12.3307C8.90086 12.3103 8.43832 12.1745 8.028 11.935C7.62792 11.7058 7.29483 11.3758 7.06184 10.9779C6.82886 10.58 6.70411 10.1281 6.7 9.667H8.1L6.587 6.785C5.86696 7.42858 5.41425 8.31864 5.31817 9.27959C5.2221 10.2405 5.48963 11.2026 6.068 11.976C6.67295 12.7652 7.5311 13.3221 8.49825 13.5532C9.4654 13.7843 10.4826 13.6755 11.379 13.245ZM7.621 6.088L8.248 7.281C8.67735 7.07758 9.14982 6.98192 9.62448 7.00231C10.0991 7.02269 10.5617 7.15851 10.972 7.398C11.3722 7.6273 11.7054 7.95742 11.9384 8.35551C12.1714 8.7536 12.2961 9.20576 12.3 9.667H10.9L12.413 12.549C13.133 11.9054 13.5858 11.0154 13.6818 10.0544C13.7779 9.09346 13.5104 8.1314 12.932 7.358C12.327 6.56857 11.4687 6.01149 10.5013 5.78039C9.53393 5.54929 8.51649 5.65827 7.62 6.089L7.621 6.088Z" fill="white"/>
</svg>
