<svg width="22" height="18" viewBox="0 0 22 18" fill="none" xmlns="http://www.w3.org/2000/svg">
<path d="M18.9881 1.92858C19.491 1.92853 19.9747 2.12134 20.3396 2.46729C20.7046 2.81323 20.9229 3.28596 20.9498 3.7881L20.9524 3.89286V7.98172C19.8012 6.94898 18.3085 6.37877 16.7619 6.38096C13.2906 6.38096 10.4762 9.19539 10.4762 12.6667C10.4762 13.8117 10.7826 14.8855 11.3174 15.8101L1.96429 15.8095C1.46143 15.8096 0.977707 15.6168 0.61276 15.2708C0.247813 14.9249 0.0294381 14.4521 0.00261912 13.95L7.94799e-09 13.8452V5.33282L7.23067 5.33334L7.34905 5.32967C7.85997 5.29879 8.33866 5.06969 8.68319 4.69115L8.76019 4.60105L10.9125 1.92858H18.9881ZM16.7619 7.42858C19.6549 7.42858 22 9.77367 22 12.6667C22 15.5597 19.6549 17.9048 16.7619 17.9048C13.8689 17.9048 11.5238 15.5597 11.5238 12.6667C11.5238 9.77367 13.8689 7.42858 16.7619 7.42858ZM16.7619 9.52382C16.6336 9.52383 16.5098 9.57094 16.4139 9.65619C16.318 9.74145 16.2568 9.85892 16.2418 9.98634L16.2381 10.0476V12.1429H14.1429C14.0146 12.1429 13.8907 12.19 13.7949 12.2752C13.699 12.3605 13.6377 12.478 13.6227 12.6054L13.619 12.6667C13.6191 12.795 13.6662 12.9188 13.7514 13.0147C13.8367 13.1106 13.9542 13.1718 14.0816 13.1868L14.1429 13.1905H16.2381V15.2857C16.2381 15.414 16.2852 15.5378 16.3705 15.6337C16.4557 15.7296 16.5732 15.7909 16.7006 15.8059L16.7619 15.8095C16.8902 15.8095 17.014 15.7624 17.1099 15.6772C17.2058 15.5919 17.267 15.4744 17.282 15.347L17.2857 15.2857V13.1905H19.381C19.5093 13.1905 19.6331 13.1434 19.729 13.0581C19.8248 12.9729 19.8861 12.8554 19.9011 12.728L19.9048 12.6667C19.9047 12.5384 19.8576 12.4145 19.7724 12.3187C19.6871 12.2228 19.5697 12.1615 19.4422 12.1465L19.381 12.1429H17.2857V10.0476C17.2857 9.91933 17.2386 9.7955 17.1533 9.69962C17.0681 9.60375 16.9506 9.54249 16.8232 9.52748L16.7619 9.52382ZM6.84095 0.0952454C7.27729 0.0952454 7.7 0.240341 8.0431 0.505912L8.13476 0.581341L9.41495 1.70125L7.74033 3.77972L7.6911 3.83472C7.58633 3.93791 7.45014 4.00339 7.304 4.01963L7.23067 4.02382L7.94799e-09 4.02329V2.05953C-4.51995e-05 1.55668 0.192763 1.07295 0.538707 0.708005C0.884652 0.343058 1.35738 0.124683 1.85952 0.0978645L1.96429 0.0952454H6.84095Z" fill="white"/>
</svg>
