<svg width="19" height="18" viewBox="0 0 19 18" fill="none" xmlns="http://www.w3.org/2000/svg">
    <defs>
        <linearGradient id="paint0_linear_882_3810" x1="9.50018" y1="7.19336" x2="9.50018" y2="13.3334" gradientUnits="userSpaceOnUse">
            <stop stop-color="#0FE3A7"/>
            <stop offset="1" stop-color="#00BADA"/>
        </linearGradient>
    </defs><path d="M16.5 6.33344V14.3334C16.4955 14.5147 16.4193 14.6868 16.2881 14.8118C16.1568 14.9369 15.9812 15.0047 15.8 15.0004H3.2C3.01875 15.0047 2.8432 14.9369 2.71195 14.8118C2.58069 14.6868 2.50446 14.5147 2.5 14.3334V5.66744H15.8C15.9811 5.66314 16.1565 5.73084 16.2877 5.8557C16.4189 5.98055 16.4953 6.15236 16.5 6.33344ZM9.79 4.33344H2.5V3.66744C2.50446 3.48619 2.58069 3.31412 2.71195 3.18905C2.8432 3.06398 3.01875 2.99614 3.2 3.00044H8.39L9.79 4.33344Z" fill="white"/>
<path d="M9.06118 9.82436V7.19336H9.93818V9.82436H12.5702V10.7014H9.93818V13.3334H9.06118V10.7014H6.43018V9.82436H9.06118Z" fill="url(#paint0_linear_882_3810)"/>

</svg>
